<svg id="svg" version="1.1" xmlns="http://www.w3.org/2000/svg" xmlns:xlink="http://www.w3.org/1999/xlink" width="400" height="368.6274509803922" viewBox="0, 0, 400,368.6274509803922"><g id="svgg"><path id="path0" d="M115.760 10.876 L 115.760 21.751 92.350 21.751 L 68.940 21.751 68.940 33.543 L 68.940 45.335 57.235 45.433 L 45.530 45.530 45.433 57.235 L 45.335 68.940 33.543 68.940 L 21.751 68.940 21.751 139.539 L 21.751 210.138 10.876 210.138 L 0.000 210.138 0.000 247.189 L 0.000 284.240 10.870 284.240 L 21.741 284.240 21.838 295.945 L 21.935 307.650 45.438 307.745 L 68.940 307.840 68.940 319.634 L 68.940 331.429 80.737 331.429 L 92.535 331.429 92.535 343.226 L 92.535 355.023 106.175 355.023 L 119.816 355.023 119.816 361.843 L 119.816 368.664 141.935 368.664 L 164.055 368.664 164.055 361.716 C 164.055 352.645,165.326 353.548,152.570 353.548 C 139.426 353.548,140.829 354.967,140.829 341.678 L 140.829 331.513 139.921 330.918 C 138.621 330.066,121.433 330.044,117.787 330.889 C 115.810 331.348,113.187 331.436,104.031 331.350 L 92.719 331.244 92.622 319.539 L 92.524 307.834 81.285 307.788 C 75.104 307.763,69.839 307.721,69.585 307.696 C 69.229 307.660,69.102 304.981,69.027 295.945 L 68.930 284.240 45.565 284.240 L 22.200 284.240 21.979 283.361 C 21.691 282.213,21.691 212.165,21.979 211.017 L 22.200 210.138 45.760 210.138 L 69.321 210.138 69.223 200.092 L 69.124 190.046 59.171 189.862 C 48.507 189.664,48.278 189.621,47.617 187.687 C 47.015 185.923,47.001 73.443,47.603 72.122 C 48.190 70.833,48.531 70.794,59.150 70.788 L 68.715 70.783 69.749 69.793 L 70.783 68.802 70.788 59.194 C 70.791 53.909,70.888 49.232,71.004 48.801 C 71.425 47.230,72.029 47.189,94.467 47.189 L 115.904 47.189 116.938 46.198 L 117.972 45.208 117.972 35.153 C 117.972 25.284,117.987 25.084,118.779 24.346 L 119.586 23.594 211.816 23.594 L 304.047 23.594 305.019 24.566 L 305.991 25.538 305.991 35.754 C 305.991 45.182,306.043 46.016,306.665 46.579 C 307.276 47.132,309.380 47.189,329.268 47.189 C 350.827 47.189,351.211 47.202,352.004 47.941 C 352.796 48.679,352.811 48.876,352.811 58.833 L 352.811 68.974 353.716 69.879 L 354.621 70.783 364.694 70.783 C 373.214 70.783,374.893 70.872,375.586 71.357 L 376.406 71.931 376.406 129.407 L 376.406 186.884 375.599 187.635 C 374.827 188.354,374.347 188.387,364.603 188.387 C 351.400 188.387,352.811 186.968,352.811 200.243 C 352.811 209.608,352.759 210.440,352.137 211.003 C 351.516 211.565,346.984 211.613,294.454 211.613 C 238.468 211.613,237.438 211.626,237.064 212.326 C 236.492 213.393,236.549 233.452,237.124 234.028 C 237.447 234.350,240.286 234.470,247.590 234.470 C 260.780 234.470,259.300 232.958,259.558 246.695 C 259.670 252.644,259.795 257.553,259.835 257.604 C 259.875 257.654,264.719 257.696,270.599 257.696 L 281.290 257.696 281.292 247.834 C 281.294 237.908,281.521 235.719,282.643 234.786 C 283.444 234.121,302.944 233.848,305.255 234.471 C 307.711 235.132,307.834 235.740,307.834 247.177 L 307.834 256.959 318.065 256.990 C 329.376 257.025,330.557 257.070,330.964 257.477 C 331.118 257.631,331.244 274.292,331.244 294.501 L 331.244 331.244 319.539 331.342 L 307.834 331.439 307.834 341.424 L 307.834 351.409 306.689 352.479 L 305.544 353.548 295.050 353.548 C 282.155 353.548,283.502 352.605,283.502 361.633 L 283.502 368.664 297.696 368.664 L 311.889 368.664 311.889 361.849 L 311.889 355.035 321.567 354.937 L 331.244 354.839 331.342 343.139 L 331.439 331.439 343.139 331.342 L 354.839 331.244 354.839 294.194 L 354.839 257.143 343.134 257.046 L 331.429 256.948 331.429 247.189 L 331.429 237.430 343.134 237.332 L 354.839 237.235 354.936 225.530 L 355.033 213.825 366.641 213.825 L 378.249 213.825 378.249 202.028 L 378.249 190.230 389.124 190.230 L 400.000 190.230 400.000 129.585 L 400.000 68.940 389.124 68.940 L 378.249 68.940 378.249 57.143 L 378.249 45.346 366.641 45.346 L 355.033 45.346 354.936 33.641 L 354.839 21.935 331.336 21.841 L 307.834 21.746 307.834 10.873 L 307.834 0.000 211.797 0.000 L 115.760 0.000 115.760 10.876 M118.509 142.103 L 117.604 143.008 117.604 164.785 L 117.604 186.562 118.549 186.922 C 119.588 187.317,161.076 187.430,163.410 187.044 L 164.793 186.816 164.793 164.695 L 164.793 142.575 163.999 141.887 C 163.243 141.231,162.157 141.198,141.309 141.198 L 119.413 141.198 118.509 142.103 M212.414 165.646 C 211.632 166.479,211.613 166.735,211.613 176.642 C 211.613 186.767,211.611 186.785,210.760 187.586 L 209.906 188.387 188.135 188.387 L 166.364 188.387 166.135 189.770 C 165.700 192.403,165.865 209.957,166.330 210.422 C 166.759 210.851,231.505 210.722,234.378 210.286 L 235.576 210.105 235.576 188.242 C 235.576 167.427,235.543 166.342,234.888 165.586 C 233.769 164.297,213.632 164.350,212.414 165.646 M142.712 236.819 C 141.992 237.686,142.326 257.329,143.068 257.797 C 143.449 258.037,151.091 258.051,165.372 257.837 L 187.097 257.512 187.195 247.418 C 187.264 240.280,187.170 237.177,186.873 236.819 C 186.526 236.401,182.700 236.313,164.793 236.313 C 146.886 236.313,143.059 236.401,142.712 236.819 M189.673 284.332 C 189.562 284.788,189.517 289.558,189.574 294.931 L 189.677 304.700 199.447 304.804 C 204.820 304.861,209.590 304.816,210.046 304.705 L 210.876 304.502 210.876 294.445 C 210.876 287.114,210.756 284.267,210.433 283.945 C 210.111 283.622,207.264 283.502,199.933 283.502 L 189.876 283.502 189.673 284.332 M213.336 307.340 C 212.863 307.813,213.048 327.924,213.530 328.406 C 214.224 329.100,256.710 329.038,257.288 328.342 C 257.585 327.984,257.679 324.833,257.610 317.559 L 257.512 307.281 235.548 307.186 C 223.468 307.134,213.473 307.203,213.336 307.340 " stroke="none" fill="#2a040e" fill-rule="evenodd"></path><path id="path1" d="M141.659 190.122 L 140.829 190.282 140.829 200.077 C 140.829 208.974,140.770 209.918,140.184 210.362 C 139.686 210.741,137.289 210.855,129.651 210.864 C 119.335 210.876,118.710 210.969,118.710 212.486 C 118.710 212.793,118.544 213.147,118.341 213.272 C 118.109 213.415,117.972 217.347,117.972 223.850 L 117.972 234.200 116.959 235.072 C 115.946 235.942,115.929 235.944,105.911 235.944 C 97.220 235.945,95.701 236.029,94.560 236.573 L 93.243 237.201 93.446 248.831 C 93.557 255.227,93.735 265.004,93.841 270.557 C 94.086 283.476,95.490 282.028,82.722 282.028 L 72.655 282.028 72.266 283.472 C 72.027 284.362,71.915 288.648,71.975 294.625 L 72.074 304.332 82.949 304.530 C 88.931 304.639,93.841 304.764,93.861 304.807 C 93.880 304.850,94.251 305.192,94.684 305.568 C 95.452 306.234,95.475 306.539,95.570 317.089 L 95.668 327.926 118.525 328.111 C 141.441 328.295,143.041 328.391,143.041 329.573 C 143.041 329.756,147.864 329.999,153.825 330.116 C 177.157 330.576,187.116 330.888,187.558 331.174 C 187.907 331.400,188.018 333.852,188.018 341.348 C 188.018 350.827,188.049 351.259,188.787 352.109 L 189.555 352.995 223.384 353.093 L 257.213 353.191 258.198 352.417 L 259.182 351.642 259.084 341.443 L 258.986 331.244 235.576 331.053 C 222.700 330.948,212.129 330.823,212.083 330.777 C 211.016 329.676,210.876 328.195,210.876 318.064 C 210.876 310.427,210.756 307.494,210.433 307.171 C 210.110 306.847,207.195 306.728,199.622 306.728 C 186.180 306.728,187.650 308.254,187.650 294.303 C 187.650 284.301,187.697 283.526,188.354 282.714 L 189.058 281.843 200.796 281.659 L 212.535 281.475 212.719 259.249 C 212.878 240.031,212.978 236.976,213.456 236.674 C 213.768 236.477,218.299 236.322,223.858 236.319 C 233.215 236.314,233.726 236.278,234.088 235.600 C 234.327 235.155,234.470 230.798,234.470 223.994 L 234.470 213.102 233.469 212.850 C 232.919 212.712,217.256 212.713,198.662 212.852 L 164.855 213.104 164.086 212.025 C 163.351 210.992,163.318 210.497,163.318 200.404 L 163.318 189.862 152.903 189.912 C 147.175 189.940,142.115 190.034,141.659 190.122 M187.075 234.243 C 189.107 235.297,189.100 235.256,189.113 247.027 C 189.125 258.627,189.206 257.976,187.543 259.616 C 187.459 259.699,170.520 260.131,153.917 260.473 C 139.116 260.778,140.461 262.113,140.461 247.106 C 140.461 236.211,140.626 235.111,142.397 234.234 C 143.743 233.567,185.789 233.576,187.075 234.243 M283.945 236.756 C 283.622 237.078,283.502 239.922,283.502 247.245 C 283.502 261.146,284.804 259.908,270.189 259.908 C 263.519 259.908,259.222 260.052,258.778 260.289 C 258.100 260.652,258.064 261.163,258.059 270.520 C 258.056 276.079,257.901 280.610,257.704 280.922 C 257.402 281.400,254.347 281.500,235.129 281.659 L 212.903 281.843 212.806 292.964 C 212.720 302.710,212.780 304.156,213.293 304.669 C 213.813 305.189,216.294 305.255,235.879 305.265 C 252.593 305.274,258.021 305.385,258.465 305.726 C 259.820 306.766,259.908 307.581,259.908 319.047 L 259.908 330.309 260.755 330.521 C 261.221 330.638,266.405 330.642,272.276 330.529 C 278.146 330.417,287.677 330.235,293.456 330.125 C 301.384 329.974,304.054 329.809,304.332 329.451 C 305.217 328.314,307.235 328.111,317.659 328.111 L 328.111 328.111 328.106 305.899 C 328.103 293.682,328.000 283.313,327.878 282.857 L 327.656 282.028 317.618 282.028 C 304.950 282.028,306.359 283.422,306.359 270.889 C 306.359 262.921,306.257 260.902,305.809 260.042 C 305.356 259.175,305.258 257.029,305.256 248.031 C 305.254 237.579,305.221 237.059,304.540 236.695 C 303.475 236.125,284.520 236.181,283.945 236.756 " stroke="none" fill="#fac9ab" fill-rule="evenodd"></path><path id="path2" d="M119.447 58.814 C 119.447 69.196,119.246 70.895,117.918 71.752 C 117.644 71.929,107.300 72.157,94.931 72.258 L 72.442 72.442 72.442 94.194 L 72.442 115.945 94.194 115.945 L 115.945 115.945 116.129 105.253 C 116.230 99.373,116.458 94.338,116.635 94.064 C 117.630 92.522,117.219 92.535,164.781 92.535 L 210.138 92.535 210.138 70.599 L 210.138 48.664 164.793 48.664 L 119.447 48.664 119.447 58.814 M237.221 72.716 C 237.123 72.971,237.087 82.802,237.139 94.562 L 237.235 115.945 258.986 115.945 L 280.737 115.945 280.737 94.194 L 280.737 72.442 259.068 72.347 C 241.928 72.272,237.361 72.349,237.221 72.716 M129.365 189.114 C 121.337 189.257,118.304 189.432,117.890 189.776 C 117.404 190.181,117.291 193.166,117.054 211.944 C 116.904 223.878,116.672 233.820,116.538 234.036 C 116.379 234.293,112.344 234.502,104.876 234.638 C 98.595 234.753,88.835 234.936,83.186 235.044 C 74.258 235.215,72.802 235.165,72.034 234.663 L 71.152 234.084 71.152 223.765 L 71.152 213.445 69.954 212.715 C 68.795 212.009,68.038 211.984,47.080 211.983 L 25.404 211.982 24.499 212.886 L 23.594 213.791 23.594 247.189 L 23.594 280.587 24.499 281.491 L 25.404 282.396 47.116 282.396 C 67.784 282.396,68.865 282.429,69.621 283.085 C 70.398 283.759,70.415 283.988,70.415 294.063 C 70.415 307.507,68.944 305.991,81.984 305.991 C 95.461 305.991,94.009 304.557,94.009 317.863 C 94.009 326.996,94.075 328.110,94.654 328.823 C 95.361 329.694,95.596 329.695,128.476 329.018 C 139.421 328.792,139.655 328.813,141.001 330.159 L 141.935 331.093 141.935 341.158 C 141.935 350.336,141.993 351.274,142.591 351.815 C 143.155 352.326,144.711 352.424,153.683 352.518 L 164.120 352.627 165.009 353.661 C 165.882 354.676,165.899 354.829,165.899 361.680 L 165.899 368.664 189.124 368.664 L 212.350 368.664 212.350 361.976 C 212.350 356.039,212.423 355.234,212.995 354.799 C 213.521 354.400,219.848 354.307,247.005 354.296 L 280.369 354.283 282.182 353.363 C 283.983 352.449,284.069 352.442,293.923 352.442 C 302.639 352.442,303.980 352.365,304.920 351.810 L 305.991 351.177 305.991 341.185 L 305.991 331.193 306.915 330.389 C 307.818 329.604,308.083 329.585,318.186 329.585 C 326.661 329.585,328.627 329.490,329.059 329.059 C 329.507 328.610,329.585 323.523,329.585 294.653 L 329.585 260.774 328.732 259.972 C 327.899 259.189,327.642 259.171,317.752 259.171 L 307.624 259.171 306.992 258.100 C 306.437 257.160,306.359 255.825,306.359 247.207 L 306.359 237.386 305.455 236.481 L 304.550 235.576 294.421 235.576 L 284.293 235.576 283.529 236.547 C 282.799 237.476,282.765 237.960,282.765 247.543 C 282.765 260.572,284.239 259.171,270.537 259.171 L 260.016 259.171 259.040 258.266 L 258.065 257.362 258.065 247.473 C 258.065 234.509,259.468 235.945,246.794 235.945 L 236.671 235.945 235.941 234.747 C 235.259 233.628,235.210 232.866,235.209 223.326 L 235.207 213.105 234.259 212.483 C 233.380 211.907,230.860 211.878,200.015 212.094 L 166.720 212.326 165.572 211.229 L 164.424 210.132 164.424 200.023 C 164.424 191.325,164.343 189.834,163.845 189.335 C 163.222 188.712,154.816 188.658,129.365 189.114 M163.318 200.404 C 163.318 210.497,163.351 210.992,164.086 212.025 L 164.855 213.104 198.662 212.852 C 217.256 212.713,232.919 212.712,233.469 212.850 L 234.470 213.102 234.470 223.994 C 234.470 230.798,234.327 235.155,234.088 235.600 C 233.726 236.278,233.215 236.314,223.858 236.319 C 218.299 236.322,213.768 236.477,213.456 236.674 C 212.978 236.976,212.878 240.031,212.719 259.249 L 212.535 281.475 200.796 281.659 L 189.058 281.843 188.354 282.714 C 187.697 283.526,187.650 284.301,187.650 294.303 C 187.650 308.254,186.180 306.728,199.622 306.728 C 207.195 306.728,210.110 306.847,210.433 307.171 C 210.756 307.494,210.876 310.427,210.876 318.064 C 210.876 328.195,211.016 329.676,212.083 330.777 C 212.129 330.823,222.700 330.948,235.576 331.053 L 258.986 331.244 259.084 341.443 L 259.182 351.642 258.198 352.417 L 257.213 353.191 223.384 353.093 L 189.555 352.995 188.787 352.109 C 188.049 351.259,188.018 350.827,188.018 341.348 C 188.018 333.852,187.907 331.400,187.558 331.174 C 187.116 330.888,177.157 330.576,153.825 330.116 C 147.864 329.999,143.041 329.756,143.041 329.573 C 143.041 328.391,141.441 328.295,118.525 328.111 L 95.668 327.926 95.570 317.089 C 95.475 306.539,95.452 306.234,94.684 305.568 C 94.251 305.192,93.880 304.850,93.861 304.807 C 93.841 304.764,88.931 304.639,82.949 304.530 L 72.074 304.332 71.975 294.625 C 71.915 288.648,72.027 284.362,72.266 283.472 L 72.655 282.028 82.722 282.028 C 95.490 282.028,94.086 283.476,93.841 270.557 C 93.735 265.004,93.557 255.227,93.446 248.831 L 93.243 237.201 94.560 236.573 C 95.701 236.029,97.220 235.945,105.911 235.944 C 115.929 235.944,115.946 235.942,116.959 235.072 L 117.972 234.200 117.972 223.850 C 117.972 217.347,118.109 213.415,118.341 213.272 C 118.544 213.147,118.710 212.793,118.710 212.486 C 118.710 210.969,119.335 210.876,129.651 210.864 C 137.289 210.855,139.686 210.741,140.184 210.362 C 140.770 209.918,140.829 208.974,140.829 200.077 L 140.829 190.282 141.659 190.122 C 142.115 190.034,147.175 189.940,152.903 189.912 L 163.318 189.862 163.318 200.404 M142.397 234.234 C 140.626 235.111,140.461 236.211,140.461 247.106 C 140.461 262.113,139.116 260.778,153.917 260.473 C 170.520 260.131,187.459 259.699,187.543 259.616 C 189.206 257.976,189.125 258.627,189.113 247.027 C 189.100 235.256,189.107 235.297,187.075 234.243 C 185.789 233.576,143.743 233.567,142.397 234.234 M187.621 235.793 L 188.756 236.748 188.756 247.207 C 188.756 260.444,189.679 259.171,180.083 259.171 C 176.201 259.171,166.305 259.280,158.092 259.414 L 143.161 259.657 141.995 258.437 L 140.829 257.218 140.829 247.098 L 140.829 236.978 141.974 235.908 L 143.119 234.839 164.803 234.839 L 186.487 234.839 187.621 235.793 M304.540 236.695 C 305.221 237.059,305.254 237.579,305.256 248.031 C 305.258 257.029,305.356 259.175,305.809 260.042 C 306.257 260.902,306.359 262.921,306.359 270.889 C 306.359 283.422,304.950 282.028,317.618 282.028 L 327.656 282.028 327.878 282.857 C 328.000 283.313,328.103 293.682,328.106 305.899 L 328.111 328.111 317.659 328.111 C 307.235 328.111,305.217 328.314,304.332 329.451 C 304.054 329.809,301.384 329.974,293.456 330.125 C 287.677 330.235,278.146 330.417,272.276 330.529 C 266.405 330.642,261.221 330.638,260.755 330.521 L 259.908 330.309 259.908 319.047 C 259.908 307.581,259.820 306.766,258.465 305.726 C 258.021 305.385,252.593 305.274,235.879 305.265 C 216.294 305.255,213.813 305.189,213.293 304.669 C 212.780 304.156,212.720 302.710,212.806 292.964 L 212.903 281.843 235.129 281.659 C 254.347 281.500,257.402 281.400,257.704 280.922 C 257.901 280.610,258.056 276.079,258.059 270.520 C 258.064 261.163,258.100 260.652,258.778 260.289 C 259.222 260.052,263.519 259.908,270.189 259.908 C 284.804 259.908,283.502 261.146,283.502 247.245 C 283.502 239.922,283.622 237.078,283.945 236.756 C 284.520 236.181,303.475 236.125,304.540 236.695 M211.273 283.105 L 212.350 284.183 212.356 294.257 C 212.359 299.958,212.513 304.572,212.711 304.885 C 213.013 305.363,216.096 305.463,235.547 305.622 C 257.491 305.802,258.047 305.824,258.590 306.544 C 259.056 307.161,259.149 309.006,259.159 317.847 L 259.171 328.414 258.036 329.368 L 256.902 330.323 235.392 330.323 L 213.881 330.323 212.747 329.368 L 211.613 328.414 211.613 318.193 C 211.613 304.915,213.034 306.359,199.969 306.359 L 189.828 306.359 188.923 305.455 L 188.018 304.550 188.018 294.193 L 188.018 283.836 188.994 282.932 L 189.969 282.028 200.082 282.028 L 210.195 282.028 211.273 283.105 " stroke="none" fill="#d56c64" fill-rule="evenodd"></path><path id="path3" d="M118.774 24.448 C 117.992 25.281,117.972 25.541,117.972 35.306 C 117.972 42.113,117.836 45.611,117.545 46.250 L 117.117 47.189 94.913 47.189 C 73.608 47.189,72.673 47.217,71.838 47.893 C 70.968 48.597,70.968 48.599,70.783 59.291 C 70.682 65.173,70.461 70.124,70.293 70.293 C 70.124 70.461,65.173 70.682,59.291 70.783 C 48.599 70.968,48.597 70.968,47.893 71.838 C 47.207 72.686,47.189 74.156,47.189 129.643 L 47.189 186.577 48.094 187.482 L 48.999 188.387 58.887 188.387 C 71.857 188.387,70.415 186.961,70.415 199.790 L 70.415 210.046 69.263 210.276 C 68.629 210.403,58.131 210.507,45.935 210.507 C 26.504 210.507,23.658 210.578,22.943 211.078 L 22.127 211.649 22.127 247.165 C 22.127 279.659,22.179 282.724,22.733 283.184 C 23.225 283.592,27.644 283.721,46.232 283.871 L 69.124 284.055 69.327 295.668 C 69.439 302.055,69.563 307.314,69.604 307.353 C 69.644 307.393,74.760 307.439,80.972 307.455 C 87.184 307.471,92.410 307.573,92.585 307.681 C 92.760 307.789,92.915 312.803,92.929 318.824 C 92.943 324.844,93.068 330.055,93.207 330.405 C 93.477 331.084,100.587 331.104,128.552 330.503 C 137.886 330.303,139.043 330.343,139.888 330.897 L 140.829 331.513 140.829 341.729 C 140.829 354.966,139.403 353.548,152.721 353.548 C 159.113 353.548,162.991 353.686,163.134 353.917 C 163.493 354.499,164.793 354.347,164.793 353.724 C 164.793 352.650,162.889 352.442,153.029 352.442 C 140.547 352.442,141.935 353.858,141.935 341.133 C 141.935 331.559,141.906 331.138,141.165 330.287 L 140.395 329.401 117.802 329.530 L 95.208 329.658 94.609 328.802 C 94.090 328.062,94.009 326.570,94.009 317.770 C 94.009 304.571,95.465 305.991,81.933 305.991 C 68.953 305.991,70.415 307.505,70.415 294.063 C 70.415 283.988,70.398 283.759,69.621 283.085 C 68.865 282.429,67.784 282.396,47.116 282.396 L 25.404 282.396 24.499 281.491 L 23.594 280.587 23.594 247.189 L 23.594 213.791 24.499 212.886 L 25.404 211.982 47.080 211.983 C 68.038 211.984,68.795 212.009,69.954 212.715 L 71.152 213.445 71.152 223.765 L 71.152 234.084 72.034 234.663 C 72.801 235.165,74.258 235.215,83.186 235.044 C 88.835 234.936,98.510 234.754,104.688 234.638 C 111.057 234.520,116.105 234.274,116.349 234.071 C 116.663 233.811,116.854 227.807,117.054 211.979 C 117.291 193.175,117.404 190.181,117.890 189.776 C 118.456 189.306,121.805 189.185,151.715 188.556 L 162.785 188.323 163.789 189.327 L 164.793 190.331 164.793 200.468 C 164.793 210.408,164.808 210.618,165.592 211.298 C 166.366 211.970,167.444 211.984,199.970 211.751 L 233.548 211.510 234.562 212.466 L 235.576 213.421 235.576 223.864 C 235.576 237.471,234.155 235.945,246.820 235.945 C 259.463 235.945,258.065 234.513,258.065 247.455 C 258.065 260.214,256.550 258.802,270.230 258.802 C 283.921 258.802,282.396 260.251,282.396 247.239 L 282.396 237.151 283.368 236.179 L 284.340 235.207 294.205 235.207 L 304.069 235.207 305.214 236.277 L 306.359 237.347 306.359 247.188 C 306.359 255.823,306.437 257.160,306.992 258.100 L 307.624 259.171 317.803 259.171 C 327.966 259.171,327.983 259.172,328.784 260.024 L 329.585 260.877 329.585 294.704 C 329.585 323.530,329.507 328.610,329.059 329.059 C 328.627 329.490,326.661 329.585,318.186 329.585 C 308.083 329.585,307.818 329.604,306.915 330.389 L 305.991 331.193 305.991 341.185 L 305.991 351.177 304.920 351.810 C 303.980 352.365,302.639 352.442,293.931 352.442 C 283.607 352.442,281.685 352.698,283.496 353.828 C 283.935 354.102,284.240 354.140,284.240 353.920 C 284.240 353.679,287.972 353.548,294.877 353.548 L 305.514 353.548 306.490 352.644 L 307.465 351.740 307.465 341.400 L 307.465 331.060 318.653 331.060 C 329.046 331.060,329.883 331.012,330.453 330.382 C 331.254 329.497,331.392 259.692,330.595 258.417 C 330.165 257.727,329.661 257.696,319.029 257.696 C 309.233 257.696,307.886 257.627,307.689 257.113 C 307.566 256.792,307.465 251.898,307.465 246.237 C 307.465 232.776,308.901 233.978,293.051 234.168 C 280.236 234.322,281.295 233.091,281.292 247.834 L 281.290 257.696 270.599 257.696 C 264.719 257.696,259.875 257.654,259.835 257.604 C 259.795 257.553,259.670 252.644,259.558 246.695 C 259.300 232.958,260.780 234.470,247.590 234.470 C 240.286 234.470,237.447 234.350,237.124 234.028 C 236.549 233.452,236.492 213.393,237.064 212.326 C 237.438 211.626,238.469 211.613,294.518 211.613 C 349.341 211.613,351.615 211.586,352.201 210.939 C 352.738 210.346,352.811 209.043,352.811 200.127 C 352.811 186.985,351.396 188.387,364.660 188.387 C 374.785 188.387,374.804 188.386,375.604 187.534 L 376.406 186.681 376.406 129.420 L 376.406 72.160 375.612 71.472 C 374.878 70.836,374.050 70.783,364.719 70.783 L 354.621 70.783 353.716 69.879 L 352.811 68.974 352.811 58.883 C 352.811 48.812,352.809 48.791,351.958 47.991 L 351.105 47.189 329.158 47.189 C 308.364 47.189,307.179 47.154,306.601 46.515 C 306.064 45.922,305.991 44.618,305.991 35.689 L 305.991 25.538 305.019 24.566 L 304.047 23.594 211.811 23.594 L 119.576 23.594 118.774 24.448 M210.819 48.246 L 211.613 48.934 211.613 70.619 L 211.613 92.303 210.811 93.156 L 210.010 94.009 164.636 94.021 C 129.550 94.030,119.130 94.134,118.678 94.482 C 117.342 95.508,117.235 96.385,117.235 106.362 C 117.235 114.381,117.138 116.278,116.708 116.708 C 115.920 117.497,72.467 117.497,71.679 116.708 C 70.890 115.920,70.890 72.467,71.679 71.679 C 72.123 71.234,75.579 71.152,93.823 71.152 C 109.551 71.152,115.660 71.035,116.245 70.723 C 117.917 69.833,117.948 69.620,117.961 59.148 C 117.972 49.626,118.007 49.135,118.724 48.364 L 119.476 47.558 164.751 47.558 C 208.424 47.558,210.054 47.582,210.819 48.246 M281.501 71.679 C 282.289 72.467,282.289 115.920,281.501 116.708 C 280.713 117.497,237.260 117.497,236.471 116.708 C 235.740 115.977,235.677 72.531,236.406 71.704 C 237.098 70.917,280.716 70.893,281.501 71.679 M163.999 141.887 L 164.793 142.575 164.793 164.695 L 164.793 186.816 163.410 187.044 C 161.076 187.430,119.588 187.317,118.549 186.922 L 117.604 186.562 117.604 164.785 L 117.604 143.008 118.509 142.103 L 119.413 141.198 141.309 141.198 C 162.157 141.198,163.243 141.231,163.999 141.887 M234.888 165.586 C 235.543 166.342,235.576 167.427,235.576 188.242 L 235.576 210.105 234.378 210.286 C 231.505 210.722,166.759 210.851,166.330 210.422 C 165.865 209.957,165.700 192.403,166.135 189.770 L 166.364 188.387 188.135 188.387 L 209.906 188.387 210.760 187.586 C 211.611 186.785,211.613 186.767,211.613 176.642 C 211.613 163.359,210.150 164.793,223.708 164.793 C 233.989 164.793,234.213 164.809,234.888 165.586 M142.141 236.027 C 141.199 237.371,141.289 257.699,142.241 258.560 C 143.032 259.276,146.667 259.321,171.414 258.924 C 186.697 258.679,186.700 258.679,187.543 257.836 C 188.800 256.579,188.870 238.027,187.625 236.278 L 186.862 235.207 164.788 235.207 L 142.715 235.207 142.141 236.027 M186.873 236.819 C 187.170 237.177,187.264 240.280,187.195 247.418 L 187.097 257.512 165.372 257.837 C 151.091 258.051,143.449 258.037,143.068 257.797 C 142.326 257.329,141.992 237.686,142.712 236.819 C 143.059 236.401,146.886 236.313,164.793 236.313 C 182.700 236.313,186.526 236.401,186.873 236.819 M189.189 283.618 C 188.407 284.450,188.387 284.717,188.387 294.259 L 188.387 304.047 189.359 305.019 L 190.331 305.991 200.389 305.991 C 205.921 305.991,210.709 305.890,211.030 305.767 C 211.791 305.475,211.925 283.962,211.171 283.207 C 210.204 282.241,190.130 282.616,189.189 283.618 M210.433 283.945 C 210.756 284.267,210.876 287.114,210.876 294.445 L 210.876 304.502 210.046 304.705 C 209.590 304.816,204.820 304.861,199.447 304.804 L 189.677 304.700 189.574 294.931 C 189.517 289.558,189.562 284.788,189.673 284.332 L 189.876 283.502 199.933 283.502 C 207.264 283.502,210.111 283.622,210.433 283.945 M212.424 306.433 C 212.100 306.757,211.982 309.730,211.982 317.510 L 211.982 328.144 212.886 329.049 L 213.791 329.954 235.559 329.954 C 256.836 329.954,257.344 329.937,258.065 329.217 C 258.767 328.514,258.802 327.988,258.802 318.140 L 258.802 307.801 257.897 306.896 L 256.992 305.991 234.929 305.991 C 218.261 305.991,212.758 306.099,212.424 306.433 M257.610 317.559 C 257.679 324.833,257.585 327.984,257.288 328.342 C 256.710 329.038,214.224 329.100,213.530 328.406 C 213.048 327.924,212.863 307.813,213.336 307.340 C 213.473 307.203,223.468 307.134,235.548 307.186 L 257.512 307.281 257.610 317.559 " stroke="none" fill="#743c3c" fill-rule="evenodd"></path><path id="path4" d="M197.604 211.881 C 218.106 212.137,234.016 212.140,233.860 211.889 C 233.766 211.737,223.787 211.651,211.683 211.697 C 199.580 211.744,193.244 211.827,197.604 211.881 M235.369 223.594 C 235.370 229.272,235.421 231.543,235.483 228.641 C 235.546 225.740,235.545 221.094,235.483 218.319 C 235.420 215.543,235.369 217.917,235.369 223.594 M283.368 236.179 L 282.396 237.151 282.396 247.169 C 282.396 255.234,282.294 257.326,281.874 257.902 C 281.383 258.573,280.694 258.630,270.721 258.813 L 260.092 259.008 270.627 259.089 L 281.162 259.171 281.963 258.317 C 282.746 257.485,282.765 257.223,282.765 247.491 C 282.765 237.980,282.800 237.474,283.524 236.553 L 284.284 235.588 294.308 235.484 L 304.332 235.379 294.336 235.293 L 284.340 235.207 283.368 236.179 M141.290 236.519 C 140.716 237.143,140.617 257.153,141.187 257.505 C 141.467 257.678,141.751 246.880,141.751 236.074 C 141.751 236.044,141.544 236.244,141.290 236.519 M187.650 236.246 C 187.650 236.462,187.816 236.741,188.018 236.866 C 188.797 237.348,188.486 256.755,187.683 257.747 C 186.980 258.616,186.958 258.618,176.531 258.813 L 166.083 259.009 176.613 259.090 C 186.758 259.168,187.171 259.143,187.949 258.419 C 189.004 257.436,189.237 237.172,188.203 236.313 C 187.854 236.024,187.650 235.999,187.650 236.246 M188.994 282.932 L 188.018 283.836 188.018 294.193 L 188.018 304.550 188.923 305.455 L 189.828 306.359 199.969 306.359 C 213.035 306.359,211.613 304.910,211.613 318.226 C 211.613 323.865,211.737 328.479,211.889 328.479 C 212.041 328.480,212.119 323.650,212.063 317.747 C 211.989 310.052,212.080 306.870,212.384 306.503 C 213.153 305.577,256.593 305.761,257.747 306.695 C 258.617 307.399,258.618 307.410,258.813 318.031 L 259.008 328.664 259.078 317.972 C 259.136 308.931,259.061 307.167,258.590 306.544 C 258.047 305.824,257.491 305.802,235.547 305.622 C 216.096 305.463,213.013 305.363,212.711 304.885 C 212.513 304.572,212.359 299.958,212.356 294.257 L 212.350 284.183 211.273 283.105 L 210.195 282.028 200.082 282.028 L 189.969 282.028 188.994 282.932 M211.171 283.207 C 211.925 283.962,211.791 305.475,211.030 305.767 C 210.709 305.890,205.921 305.991,200.389 305.991 L 190.331 305.991 189.359 305.019 L 188.387 304.047 188.387 294.259 C 188.387 281.398,186.964 282.765,200.359 282.765 C 207.932 282.765,210.847 282.884,211.171 283.207 " stroke="none" fill="#5c9090" fill-rule="evenodd"></path><path id="path5" d="M118.774 48.411 C 117.993 49.243,117.972 49.514,117.961 59.194 C 117.948 69.617,117.916 69.833,116.245 70.723 C 115.660 71.035,109.571 71.152,93.906 71.152 C 73.513 71.152,72.340 71.188,71.762 71.826 C 70.899 72.780,70.819 115.849,71.679 116.708 C 72.467 117.497,115.920 117.497,116.708 116.708 C 117.138 116.278,117.235 114.381,117.235 106.362 C 117.235 96.385,117.342 95.508,118.678 94.482 C 119.130 94.134,129.550 94.030,164.636 94.021 L 210.010 94.009 210.811 93.156 L 211.613 92.303 211.613 70.619 L 211.613 48.934 210.819 48.246 C 210.054 47.582,208.425 47.558,164.800 47.558 L 119.576 47.558 118.774 48.411 M210.138 70.599 L 210.138 92.535 164.781 92.535 C 117.219 92.535,117.630 92.522,116.635 94.064 C 116.458 94.338,116.230 99.373,116.129 105.253 L 115.945 115.945 94.194 115.945 L 72.442 115.945 72.442 94.194 L 72.442 72.442 94.931 72.258 C 107.300 72.157,117.644 71.929,117.918 71.752 C 119.246 70.895,119.447 69.196,119.447 58.814 L 119.447 48.664 164.793 48.664 L 210.138 48.664 210.138 70.599 M236.406 71.704 C 235.677 72.531,235.740 115.977,236.471 116.708 C 237.260 117.497,280.713 117.497,281.501 116.708 C 282.289 115.920,282.289 72.467,281.501 71.679 C 280.716 70.893,237.098 70.917,236.406 71.704 M280.737 94.194 L 280.737 115.945 258.986 115.945 L 237.235 115.945 237.139 94.562 C 237.087 82.802,237.123 72.971,237.221 72.716 C 237.361 72.349,241.928 72.272,259.068 72.347 L 280.737 72.442 280.737 94.194 M147.926 188.663 C 150.714 188.725,155.276 188.725,158.065 188.663 C 160.853 188.600,158.571 188.549,152.995 188.549 C 147.419 188.549,145.138 188.600,147.926 188.663 M164.586 200.184 C 164.586 205.760,164.637 208.041,164.700 205.253 C 164.762 202.465,164.762 197.903,164.700 195.115 C 164.637 192.327,164.586 194.608,164.586 200.184 M171.727 212.257 C 174.629 212.320,179.274 212.320,182.050 212.257 C 184.826 212.194,182.452 212.143,176.774 212.144 C 171.097 212.144,168.826 212.195,171.727 212.257 M153.825 235.115 C 159.857 235.172,169.728 235.172,175.760 235.115 C 181.793 235.058,176.857 235.012,164.793 235.012 C 152.728 235.012,147.793 235.058,153.825 235.115 M147.926 259.446 C 150.714 259.509,155.276 259.509,158.065 259.446 C 160.853 259.383,158.571 259.332,152.995 259.332 C 147.419 259.332,145.138 259.383,147.926 259.446 M212.998 329.493 L 213.866 330.323 235.504 330.236 L 257.143 330.150 235.338 329.960 C 216.714 329.797,213.431 329.689,212.831 329.217 C 212.446 328.912,212.520 329.037,212.998 329.493 M122.028 329.102 C 128.719 329.359,139.987 329.377,139.598 329.130 C 139.363 328.981,134.691 328.890,129.217 328.928 C 123.742 328.965,120.507 329.044,122.028 329.102 M281.742 353.550 C 280.560 354.271,279.855 354.286,247.088 354.297 C 219.860 354.307,213.521 354.400,212.995 354.799 C 212.423 355.234,212.350 356.039,212.350 361.976 L 212.350 368.664 247.373 368.664 L 282.396 368.664 282.396 361.683 C 282.396 357.844,282.558 354.277,282.756 353.757 C 283.186 352.625,283.241 352.636,281.742 353.550 M164.947 354.039 C 165.065 354.411,165.161 357.853,165.161 361.689 C 165.161 366.093,165.297 368.664,165.530 368.664 C 166.208 368.664,166.006 354.927,165.316 354.080 C 164.782 353.425,164.751 353.421,164.947 354.039 " stroke="none" fill="#989020" fill-rule="evenodd"></path><path id="path6" d="" stroke="none" fill="#3c9420" fill-rule="evenodd"></path><path id="path7" d="M116.866 46.267 C 116.221 46.955,116.142 47.189,116.559 47.189 C 116.866 47.189,117.306 46.774,117.537 46.267 C 117.768 45.760,117.906 45.346,117.844 45.346 C 117.783 45.346,117.343 45.760,116.866 46.267 M69.677 69.862 C 69.302 70.315,69.327 70.415,69.817 70.415 C 70.146 70.415,70.415 70.166,70.415 69.862 C 70.415 69.558,70.352 69.309,70.276 69.309 C 70.199 69.309,69.930 69.558,69.677 69.862 M47.720 187.834 C 48.139 189.584,48.603 189.666,59.171 189.862 L 69.124 190.046 69.223 200.092 C 69.306 208.684,69.400 210.138,69.868 210.138 C 70.920 210.138,70.658 189.705,69.595 188.961 C 68.903 188.476,67.238 188.387,58.855 188.387 C 49.032 188.387,48.927 188.379,48.195 187.558 L 47.456 186.728 47.720 187.834 M21.984 210.968 C 21.662 212.167,21.701 212.719,22.108 212.719 C 22.305 212.719,22.380 212.497,22.276 212.225 C 21.709 210.747,22.369 210.699,46.232 210.501 L 69.124 210.312 45.665 210.225 L 22.206 210.138 21.984 210.968 M21.928 247.189 C 21.928 266.046,21.973 273.706,22.028 264.212 C 22.082 254.717,22.082 239.289,22.028 229.926 C 21.973 220.563,21.928 228.332,21.928 247.189 M307.551 246.698 C 307.504 252.105,307.566 256.792,307.689 257.113 C 307.886 257.627,309.233 257.696,319.029 257.696 C 329.661 257.696,330.165 257.727,330.595 258.417 C 331.392 259.692,331.254 329.497,330.453 330.382 C 329.883 331.012,329.046 331.060,318.653 331.060 L 307.465 331.060 307.551 341.290 L 307.637 351.521 307.742 341.480 L 307.846 331.439 319.545 331.342 L 331.244 331.244 331.244 294.501 C 331.244 274.292,331.118 257.631,330.964 257.477 C 330.557 257.070,329.376 257.025,318.070 256.990 L 307.846 256.959 307.742 246.912 L 307.637 236.866 307.551 246.698 M21.756 282.120 C 21.759 282.373,21.861 282.954,21.984 283.410 L 22.206 284.240 45.573 284.240 L 68.940 284.240 68.940 295.831 C 68.940 302.206,69.065 307.499,69.217 307.593 C 69.502 307.770,69.413 285.153,69.125 284.332 C 68.998 283.970,64.111 283.871,46.361 283.871 C 22.414 283.871,21.638 283.816,22.268 282.174 C 22.376 281.891,22.305 281.659,22.108 281.659 C 21.912 281.659,21.753 281.866,21.756 282.120 M70.046 307.558 C 70.046 307.710,75.106 307.834,81.290 307.834 L 92.535 307.834 92.535 319.425 C 92.535 325.800,92.659 331.093,92.811 331.188 C 93.094 331.363,93.008 308.752,92.723 307.937 C 92.546 307.430,70.046 307.054,70.046 307.558 M93.640 331.152 C 93.640 331.304,98.742 331.393,104.977 331.350 C 116.341 331.272,115.056 331.145,101.106 330.970 C 96.999 330.918,93.640 331.000,93.640 331.152 M282.626 354.116 C 282.082 355.535,282.373 368.664,282.949 368.664 C 283.422 368.664,283.502 367.619,283.502 361.475 C 283.502 357.521,283.515 354.165,283.530 354.018 C 283.587 353.463,282.846 353.543,282.626 354.116 M163.978 361.474 C 164.068 367.480,164.174 368.664,164.623 368.664 C 165.076 368.664,165.161 367.529,165.161 361.475 C 165.161 354.874,165.108 354.286,164.516 354.285 C 163.920 354.285,163.879 354.832,163.978 361.474 " stroke="none" fill="#783c20" fill-rule="evenodd"></path><path id="path8" d="M116.866 46.267 C 116.221 46.955,116.142 47.189,116.559 47.189 C 116.866 47.189,117.306 46.774,117.537 46.267 C 117.768 45.760,117.906 45.346,117.844 45.346 C 117.783 45.346,117.343 45.760,116.866 46.267 M69.677 69.862 C 69.302 70.315,69.327 70.415,69.817 70.415 C 70.146 70.415,70.415 70.166,70.415 69.862 C 70.415 69.558,70.352 69.309,70.276 69.309 C 70.199 69.309,69.930 69.558,69.677 69.862 M47.720 187.834 C 48.139 189.584,48.603 189.666,59.171 189.862 L 69.124 190.046 69.223 200.092 C 69.306 208.684,69.400 210.138,69.868 210.138 C 70.920 210.138,70.658 189.705,69.595 188.961 C 68.903 188.476,67.238 188.387,58.855 188.387 C 49.032 188.387,48.927 188.379,48.195 187.558 L 47.456 186.728 47.720 187.834 M21.984 210.968 C 21.662 212.167,21.701 212.719,22.108 212.719 C 22.305 212.719,22.380 212.497,22.276 212.225 C 21.709 210.747,22.369 210.699,46.232 210.501 L 69.124 210.312 45.665 210.225 L 22.206 210.138 21.984 210.968 M21.928 247.189 C 21.928 266.046,21.973 273.706,22.028 264.212 C 22.082 254.717,22.082 239.289,22.028 229.926 C 21.973 220.563,21.928 228.332,21.928 247.189 M307.551 246.698 C 307.504 252.105,307.566 256.792,307.689 257.113 C 307.886 257.627,309.233 257.696,319.029 257.696 C 329.661 257.696,330.165 257.727,330.595 258.417 C 331.392 259.692,331.254 329.497,330.453 330.382 C 329.883 331.012,329.046 331.060,318.653 331.060 L 307.465 331.060 307.551 341.290 L 307.637 351.521 307.742 341.480 L 307.846 331.439 319.545 331.342 L 331.244 331.244 331.244 294.501 C 331.244 274.292,331.118 257.631,330.964 257.477 C 330.557 257.070,329.376 257.025,318.070 256.990 L 307.846 256.959 307.742 246.912 L 307.637 236.866 307.551 246.698 M21.756 282.120 C 21.759 282.373,21.861 282.954,21.984 283.410 L 22.206 284.240 45.573 284.240 L 68.940 284.240 68.940 295.831 C 68.940 302.206,69.065 307.499,69.217 307.593 C 69.502 307.770,69.413 285.153,69.125 284.332 C 68.998 283.970,64.111 283.871,46.361 283.871 C 22.414 283.871,21.638 283.816,22.268 282.174 C 22.376 281.891,22.305 281.659,22.108 281.659 C 21.912 281.659,21.753 281.866,21.756 282.120 M70.046 307.558 C 70.046 307.710,75.106 307.834,81.290 307.834 L 92.535 307.834 92.535 319.425 C 92.535 325.800,92.659 331.093,92.811 331.188 C 93.094 331.363,93.008 308.752,92.723 307.937 C 92.546 307.430,70.046 307.054,70.046 307.558 M93.640 331.152 C 93.640 331.304,98.742 331.393,104.977 331.350 C 116.341 331.272,115.056 331.145,101.106 330.970 C 96.999 330.918,93.640 331.000,93.640 331.152 M282.626 354.116 C 282.082 355.535,282.373 368.664,282.949 368.664 C 283.422 368.664,283.502 367.619,283.502 361.475 C 283.502 357.521,283.515 354.165,283.530 354.018 C 283.587 353.463,282.846 353.543,282.626 354.116 M163.978 361.474 C 164.068 367.480,164.174 368.664,164.623 368.664 C 165.076 368.664,165.161 367.529,165.161 361.475 C 165.161 354.874,165.108 354.286,164.516 354.285 C 163.920 354.285,163.879 354.832,163.978 361.474 " stroke="none" fill="#783c20" fill-rule="evenodd"></path></g></svg>