<svg id="svg" version="1.1" xmlns="http://www.w3.org/2000/svg" xmlns:xlink="http://www.w3.org/1999/xlink" width="400" height="400" viewBox="0, 0, 400,400"><g id="svgg"><path id="path0" d="M319.125 155.899 C 322.493 155.966,327.893 155.966,331.125 155.899 C 334.356 155.832,331.600 155.777,325.000 155.777 C 318.400 155.777,315.756 155.832,319.125 155.899 M200.667 157.067 C 200.298 157.436,200.329 167.909,200.700 168.138 C 200.865 168.240,201.000 165.731,201.000 162.562 C 201.000 159.393,200.985 156.800,200.967 156.800 C 200.948 156.800,200.813 156.920,200.667 157.067 M219.324 169.499 C 222.583 169.567,227.803 169.566,230.924 169.499 C 234.046 169.431,231.380 169.376,225.000 169.377 C 218.620 169.377,216.066 169.432,219.324 169.499 M236.958 175.000 C 236.958 178.080,237.021 179.287,237.097 177.682 C 237.173 176.078,237.173 173.558,237.096 172.082 C 237.019 170.607,236.957 171.920,236.958 175.000 M350.496 200.051 C 350.420 214.582,350.292 218.391,349.872 218.740 C 349.558 219.000,346.927 219.227,343.372 219.300 L 337.400 219.423 343.438 219.512 C 351.705 219.633,350.831 221.983,350.700 199.964 L 350.592 181.800 350.496 200.051 M311.600 193.989 C 311.600 194.218,309.250 194.424,305.900 194.489 L 300.200 194.600 300.088 199.974 C 299.946 206.775,300.311 206.400,293.831 206.400 C 287.238 206.400,287.600 206.038,287.600 212.631 C 287.600 219.111,287.975 218.746,281.174 218.888 L 275.800 219.000 275.800 237.400 L 275.800 255.800 280.944 255.912 C 287.572 256.057,287.200 256.434,287.200 249.575 C 287.200 245.592,287.340 243.957,287.700 243.724 C 287.975 243.546,296.390 243.310,306.400 243.200 L 324.600 243.000 324.698 237.800 C 324.843 230.083,324.158 230.841,331.105 230.711 L 337.000 230.600 337.111 225.100 L 337.223 219.600 325.060 219.600 C 315.759 219.600,312.799 219.481,312.479 219.095 C 312.214 218.775,312.013 214.019,311.930 206.097 C 311.859 199.226,311.755 193.603,311.700 193.602 C 311.645 193.601,311.600 193.775,311.600 193.989 M137.576 219.027 C 137.382 219.262,137.173 222.052,137.111 225.227 L 137.000 231.000 131.082 231.000 C 124.056 231.000,124.658 230.309,124.974 238.020 C 125.096 240.979,125.298 249.025,125.423 255.900 L 125.651 268.400 137.396 268.400 C 148.129 268.400,149.152 268.459,149.271 269.079 C 149.342 269.453,149.346 263.993,149.280 256.945 C 149.134 241.439,148.311 243.000,156.625 243.000 C 159.980 243.000,162.548 242.891,162.332 242.758 C 162.085 242.605,162.029 240.296,162.181 236.558 C 162.314 233.281,162.517 228.135,162.632 225.122 L 162.842 219.644 161.521 219.433 C 158.514 218.952,137.927 218.603,137.576 219.027 M150.000 224.920 C 150.000 231.570,150.367 231.200,143.763 231.200 C 137.491 231.200,138.000 231.768,138.000 224.767 L 138.000 219.600 144.000 219.600 L 150.000 219.600 150.000 224.920 M211.600 231.622 L 211.600 243.643 206.199 243.522 L 200.799 243.400 200.799 262.220 C 200.800 276.325,200.680 281.160,200.320 281.520 C 199.785 282.055,188.533 282.210,187.760 281.694 C 187.518 281.532,187.217 281.130,187.092 280.800 C 186.936 280.392,186.853 280.480,186.832 281.076 C 186.814 281.558,186.980 282.064,187.200 282.200 C 187.795 282.568,187.722 292.518,187.120 293.120 C 186.795 293.445,184.934 293.600,181.363 293.600 C 176.837 293.600,176.050 293.694,175.833 294.257 C 175.695 294.618,175.466 302.901,175.326 312.662 C 175.143 325.297,174.937 330.520,174.608 330.793 C 174.355 331.003,171.729 331.226,168.774 331.288 L 163.400 331.400 163.200 343.600 L 163.000 355.800 168.600 355.812 C 171.680 355.818,179.712 355.866,186.449 355.918 C 193.187 355.971,198.992 355.901,199.349 355.764 C 199.930 355.541,200.000 354.249,200.000 343.806 C 200.000 329.946,199.335 331.260,206.426 331.112 L 211.800 331.000 212.000 325.118 C 212.243 317.970,211.766 318.447,218.808 318.312 L 224.600 318.200 224.810 299.600 C 224.926 289.370,225.061 280.955,225.110 280.900 C 225.160 280.845,233.564 280.800,243.786 280.800 C 265.631 280.800,263.200 279.935,263.200 287.712 C 263.200 294.684,263.564 294.342,255.981 294.489 L 250.200 294.600 250.287 312.000 C 250.395 333.712,249.627 331.200,256.159 331.200 C 263.001 331.200,262.366 329.915,262.494 344.034 L 262.600 355.800 274.900 355.906 L 287.200 356.012 287.200 337.886 C 287.200 324.321,287.079 319.639,286.720 319.280 C 286.395 318.955,284.522 318.800,280.907 318.800 C 277.003 318.800,275.527 318.666,275.396 318.300 C 275.298 318.025,275.079 304.120,274.909 287.400 L 274.600 257.000 269.216 256.888 C 266.255 256.826,263.735 256.618,263.616 256.425 C 263.497 256.232,263.459 258.622,263.532 261.737 C 263.610 265.087,263.492 267.849,263.242 268.500 L 262.820 269.600 244.090 269.600 C 230.056 269.600,225.240 269.480,224.880 269.120 C 224.551 268.791,224.400 266.836,224.400 262.920 L 224.400 257.200 218.700 257.194 C 210.924 257.186,211.774 259.599,211.954 238.013 C 212.038 227.886,211.993 219.600,211.854 219.600 C 211.714 219.600,211.600 225.010,211.600 231.622 M193.600 230.695 C 198.845 230.794,199.877 230.916,200.300 231.483 C 200.575 231.851,200.800 231.975,200.800 231.756 C 200.800 230.590,199.734 230.402,193.620 230.489 L 187.400 230.578 193.600 230.695 M253.282 230.696 C 254.758 230.773,257.278 230.773,258.882 230.697 C 260.487 230.621,259.280 230.558,256.200 230.558 C 253.120 230.557,251.807 230.619,253.282 230.696 M137.594 237.300 C 137.586 244.126,138.067 243.646,131.369 243.512 L 125.800 243.400 125.689 237.700 L 125.578 232.000 131.589 232.000 L 137.600 232.000 137.594 237.300 M175.688 274.867 C 175.639 277.874,175.496 280.664,175.370 281.067 C 175.159 281.739,175.176 281.743,175.581 281.115 C 175.865 280.674,175.979 278.465,175.899 274.915 L 175.775 269.400 175.688 274.867 M166.300 281.897 C 167.895 281.973,170.505 281.973,172.100 281.897 C 173.695 281.821,172.390 281.759,169.200 281.759 C 166.010 281.759,164.705 281.821,166.300 281.897 " stroke="none" fill="#2c2c5c" fill-rule="evenodd"></path><path id="path1" d="M175.111 112.700 L 175.000 118.200 169.400 118.307 C 162.415 118.440,162.800 118.038,162.800 125.196 C 162.800 132.013,163.226 131.598,156.220 131.606 C 153.129 131.609,150.362 131.763,150.070 131.948 C 149.527 132.293,149.526 132.194,150.232 149.932 C 150.505 156.803,150.897 156.400,143.951 156.400 L 138.400 156.400 138.400 162.200 L 138.400 168.000 143.967 168.000 C 151.470 168.000,150.800 167.368,150.800 174.443 L 150.800 180.400 163.176 180.400 C 169.983 180.400,175.651 180.559,175.772 180.754 C 175.892 180.949,181.168 181.240,187.495 181.401 C 201.686 181.761,200.400 181.123,200.400 187.803 L 200.400 193.178 206.100 193.289 C 209.235 193.350,217.520 193.350,224.511 193.289 L 237.222 193.178 237.111 187.689 L 237.000 182.200 224.706 182.094 L 212.412 181.988 212.204 181.094 C 212.089 180.602,211.951 177.770,211.897 174.800 L 211.800 169.400 206.227 169.288 C 199.163 169.147,199.600 169.586,199.600 162.631 C 199.600 155.554,199.156 156.002,206.180 155.994 C 213.530 155.986,212.769 157.393,212.894 143.580 L 213.000 131.800 218.656 131.689 C 225.357 131.558,224.786 132.205,224.795 124.727 C 224.801 118.413,227.094 119.048,205.002 119.242 L 187.000 119.400 186.890 113.300 L 186.779 107.200 181.001 107.200 L 175.223 107.200 175.111 112.700 M199.920 130.880 C 200.774 131.734,200.576 143.480,199.700 143.937 C 198.861 144.374,176.835 144.992,175.637 144.612 C 174.635 144.294,174.312 131.848,175.280 130.880 C 175.966 130.194,199.234 130.194,199.920 130.880 M250.891 132.069 C 250.549 132.411,250.400 134.292,250.400 138.272 C 250.400 145.033,251.199 144.360,243.000 144.503 L 237.400 144.600 237.200 150.200 L 237.000 155.800 225.090 155.906 L 213.179 156.012 213.290 162.106 L 213.400 168.200 225.166 168.306 C 233.032 168.377,237.110 168.559,237.466 168.855 C 237.868 169.188,238.000 170.778,238.000 175.262 C 238.000 182.532,236.494 181.825,250.733 181.239 C 257.040 180.979,264.945 180.675,268.300 180.564 L 274.400 180.361 274.400 169.013 C 274.400 154.899,275.119 156.400,268.357 156.400 C 265.301 156.400,262.773 156.355,262.739 156.300 C 262.706 156.245,262.481 150.710,262.239 144.000 L 261.800 131.800 256.591 131.689 C 252.879 131.610,251.241 131.719,250.891 132.069 M313.374 157.242 C 313.220 157.491,313.117 165.819,313.145 175.748 C 313.174 185.676,313.184 196.500,313.168 199.800 C 313.152 203.100,313.258 208.516,313.405 211.835 L 313.671 217.871 331.317 218.134 C 341.022 218.279,349.108 218.252,349.285 218.075 C 349.463 217.897,349.561 209.663,349.504 199.776 L 349.400 181.800 343.400 181.600 L 337.400 181.400 337.200 169.200 L 337.000 157.000 325.327 156.894 C 316.954 156.818,313.575 156.916,313.374 157.242 M212.983 219.300 C 212.878 219.575,212.838 227.900,212.896 237.800 L 213.000 255.800 218.900 255.911 L 224.800 256.021 224.800 237.411 L 224.800 218.800 218.987 218.800 C 214.706 218.800,213.124 218.932,212.983 219.300 M250.667 231.867 C 250.520 232.013,250.400 237.289,250.400 243.590 C 250.400 252.130,250.273 255.219,249.900 255.721 C 249.454 256.322,248.112 256.406,237.400 256.497 L 225.400 256.600 225.288 262.145 C 225.213 265.893,225.326 267.870,225.637 268.245 C 226.267 269.004,261.164 269.076,261.920 268.320 C 262.611 267.629,262.611 232.771,261.920 232.080 C 261.404 231.564,251.163 231.370,250.667 231.867 M176.000 237.400 C 176.000 245.155,177.086 244.578,163.184 244.214 C 157.073 244.054,151.697 244.042,151.237 244.188 C 150.398 244.455,149.872 277.786,150.660 280.729 L 150.908 281.657 156.754 281.420 C 159.969 281.290,165.300 281.052,168.600 280.891 L 174.600 280.600 174.712 275.027 C 174.853 267.980,174.446 268.399,181.149 268.406 C 188.227 268.414,187.758 267.971,188.000 274.884 L 188.200 280.600 193.900 280.711 L 199.600 280.822 199.600 274.111 C 199.599 270.420,199.480 259.435,199.334 249.700 L 199.070 232.000 187.535 232.000 L 176.000 232.000 176.000 237.400 " stroke="none" fill="#fcd3c6" fill-rule="evenodd"></path><path id="path2" d="M163.470 31.864 C 163.321 32.012,163.200 34.499,163.200 37.390 C 163.200 44.861,164.509 44.159,150.133 44.400 L 138.200 44.600 138.200 56.400 L 138.200 68.200 150.000 68.200 L 161.800 68.200 162.000 62.518 C 162.110 59.394,162.388 56.650,162.617 56.422 C 162.894 56.146,171.232 55.972,187.417 55.903 L 211.800 55.800 211.800 43.800 L 211.800 31.800 187.770 31.697 C 174.553 31.640,163.618 31.715,163.470 31.864 M225.694 56.294 L 225.800 68.200 237.600 68.200 L 249.400 68.200 249.400 56.400 L 249.400 44.600 237.494 44.494 L 225.588 44.388 225.694 56.294 M168.400 106.783 L 162.600 107.000 162.200 118.800 L 161.800 130.600 150.292 130.942 C 136.325 131.358,137.600 131.952,137.600 125.031 C 137.600 121.465,137.445 119.605,137.120 119.280 C 136.612 118.772,114.709 118.553,113.433 119.043 C 112.468 119.413,112.468 155.787,113.433 156.157 C 113.781 156.291,119.159 156.400,125.384 156.400 C 138.820 156.400,137.542 155.711,137.688 163.027 L 137.800 168.600 143.460 168.711 C 150.379 168.846,149.948 168.409,150.088 175.427 L 150.200 181.000 162.600 181.200 L 175.000 181.400 175.112 186.973 C 175.253 194.020,174.844 193.600,181.569 193.600 C 188.413 193.600,187.979 193.148,188.088 200.380 L 188.176 206.200 188.299 200.555 L 188.421 194.910 199.900 194.615 C 209.002 194.381,211.547 194.199,212.189 193.733 C 212.735 193.338,212.804 193.170,212.400 193.220 C 212.070 193.261,209.235 193.273,206.100 193.247 L 200.400 193.200 200.400 187.814 C 200.400 181.121,201.688 181.761,187.495 181.401 C 181.168 181.240,175.892 180.949,175.772 180.754 C 175.651 180.559,169.983 180.400,163.176 180.400 L 150.800 180.400 150.800 174.443 C 150.800 167.368,151.470 168.000,143.967 168.000 L 138.400 168.000 138.400 162.200 L 138.400 156.400 143.951 156.400 C 150.897 156.400,150.505 156.803,150.232 149.932 C 149.526 132.194,149.527 132.293,150.070 131.948 C 150.362 131.763,153.129 131.609,156.220 131.606 C 163.226 131.598,162.800 132.013,162.800 125.196 C 162.800 118.038,162.415 118.440,169.400 118.307 L 175.000 118.200 175.111 112.700 L 175.223 107.200 181.001 107.200 L 186.779 107.200 186.890 113.300 L 187.000 119.400 205.002 119.242 C 227.094 119.048,224.801 118.413,224.795 124.727 C 224.786 132.205,225.357 131.558,218.656 131.689 L 213.000 131.800 212.894 143.580 C 212.769 157.393,213.530 155.986,206.180 155.994 C 199.156 156.002,199.600 155.554,199.600 162.631 C 199.600 169.586,199.163 169.147,206.227 169.288 L 211.800 169.400 211.897 174.800 C 211.951 177.770,212.089 180.602,212.204 181.094 L 212.412 181.988 224.706 182.094 L 237.000 182.200 237.111 187.900 L 237.222 193.600 243.131 193.600 C 246.853 193.600,249.201 193.761,249.475 194.035 C 249.788 194.348,249.985 194.348,250.178 194.035 C 250.350 193.757,252.374 193.600,255.791 193.600 C 263.011 193.600,262.400 194.156,262.400 187.581 C 262.400 180.924,261.835 181.454,269.200 181.200 L 275.000 181.000 275.111 163.400 C 275.250 141.460,276.014 144.000,269.272 144.000 C 262.390 144.000,262.800 144.406,262.800 137.600 C 262.800 130.795,263.209 131.200,256.334 131.200 C 249.645 131.200,250.000 130.825,250.000 137.894 C 250.000 144.342,250.348 144.000,243.796 144.000 C 236.867 144.000,237.240 144.368,237.107 137.400 L 237.000 131.800 231.200 131.600 L 225.400 131.400 225.290 125.540 C 225.210 121.300,225.034 119.560,224.654 119.244 C 224.295 118.947,218.344 118.775,205.964 118.704 L 187.800 118.600 187.688 113.027 C 187.623 109.752,187.396 107.236,187.139 106.927 C 186.678 106.371,180.666 106.325,168.400 106.783 M175.280 130.880 C 174.312 131.848,174.635 144.294,175.637 144.612 C 176.835 144.992,198.861 144.374,199.700 143.937 C 200.576 143.480,200.774 131.734,199.920 130.880 C 199.234 130.194,175.966 130.194,175.280 130.880 M199.910 137.242 C 200.052 144.743,201.408 144.035,187.152 143.906 L 175.400 143.800 175.289 138.018 C 175.227 134.839,175.268 132.001,175.378 131.713 C 175.539 131.293,177.996 131.209,187.690 131.294 L 199.800 131.400 199.910 137.242 M262.239 144.000 C 262.481 150.710,262.706 156.245,262.739 156.300 C 262.773 156.355,265.301 156.400,268.357 156.400 C 275.119 156.400,274.400 154.899,274.400 169.013 L 274.400 180.361 268.300 180.564 C 264.945 180.675,257.040 180.979,250.733 181.239 C 236.494 181.825,238.000 182.532,238.000 175.262 C 238.000 170.778,237.868 169.188,237.466 168.855 C 237.110 168.559,233.032 168.377,225.166 168.306 L 213.400 168.200 213.290 162.106 L 213.179 156.012 225.090 155.906 L 237.000 155.800 237.200 150.200 L 237.400 144.600 243.000 144.503 C 251.199 144.360,250.400 145.033,250.400 138.272 C 250.400 131.132,250.008 131.549,256.591 131.689 L 261.800 131.800 262.239 144.000 M212.320 156.880 C 212.649 157.209,212.800 159.164,212.800 163.080 L 212.800 168.800 224.720 168.800 C 233.458 168.800,236.768 168.928,237.120 169.280 C 237.788 169.948,237.788 180.452,237.120 181.120 C 236.526 181.714,214.134 181.798,213.200 181.210 C 212.727 180.911,212.558 179.582,212.400 174.916 L 212.200 169.000 206.417 168.889 C 202.405 168.811,200.538 168.627,200.323 168.289 C 199.957 167.714,199.888 157.957,200.243 157.033 C 200.555 156.219,211.520 156.080,212.320 156.880 M313.020 156.900 C 312.573 158.342,312.387 217.702,312.828 218.233 C 313.466 219.003,348.754 219.086,349.520 218.320 C 350.252 217.588,350.207 182.270,349.473 181.661 C 349.164 181.404,346.648 181.177,343.373 181.112 L 337.800 181.000 337.694 169.234 C 337.623 161.368,337.441 157.290,337.145 156.934 C 336.518 156.179,313.254 156.146,313.020 156.900 M337.200 169.200 L 337.400 181.400 343.400 181.600 L 349.400 181.800 349.504 199.776 C 349.561 209.663,349.463 217.897,349.285 218.075 C 349.108 218.252,341.022 218.279,331.317 218.134 L 313.671 217.871 313.405 211.835 C 313.258 208.516,313.152 203.100,313.168 199.800 C 313.184 196.500,313.174 185.676,313.145 175.748 C 313.117 165.819,313.220 157.491,313.374 157.242 C 313.575 156.916,316.954 156.818,325.327 156.894 L 337.000 157.000 337.200 169.200 M150.580 194.509 C 150.467 194.801,150.426 197.461,150.488 200.420 L 150.600 205.800 156.200 205.800 L 161.800 205.800 161.800 200.000 L 161.800 194.200 156.292 194.089 C 152.000 194.002,150.739 194.095,150.580 194.509 M161.600 200.000 L 161.600 205.200 156.400 205.200 L 151.200 205.200 151.200 200.000 L 151.200 194.800 156.400 194.800 L 161.600 194.800 161.600 200.000 M250.000 206.757 C 250.000 207.061,251.826 207.200,255.800 207.200 L 261.600 207.200 261.600 212.600 L 261.600 218.000 249.900 218.028 C 238.724 218.055,235.166 218.330,237.618 218.977 C 238.177 219.125,241.057 219.149,244.018 219.032 C 246.978 218.914,252.235 218.711,255.700 218.581 L 262.000 218.344 262.000 212.572 L 262.000 206.800 256.633 206.800 C 253.681 206.800,250.981 206.691,250.633 206.557 C 250.285 206.424,250.000 206.514,250.000 206.757 M38.175 207.321 C 38.065 207.608,38.026 210.173,38.087 213.021 L 38.200 218.200 43.800 218.216 L 49.400 218.233 43.900 218.105 L 38.400 217.978 38.400 212.600 L 38.400 207.222 44.100 207.099 L 49.800 206.976 44.087 206.888 C 39.699 206.820,38.329 206.921,38.175 207.321 M124.500 207.097 L 136.400 207.212 136.400 212.606 L 136.400 218.000 130.443 218.000 C 123.368 218.000,124.000 217.330,124.000 224.833 L 124.000 230.400 118.624 230.400 C 115.667 230.400,113.163 230.535,113.061 230.700 C 112.958 230.865,115.513 230.910,118.737 230.800 L 124.600 230.600 124.711 224.940 C 124.846 218.021,124.409 218.452,131.427 218.312 L 137.000 218.200 137.000 212.600 L 137.000 207.000 124.800 206.991 L 112.600 206.982 124.500 207.097 M212.301 230.700 C 212.357 237.245,212.452 245.480,212.512 249.000 C 212.572 252.520,212.661 247.165,212.711 237.100 C 212.760 227.035,212.665 218.800,212.500 218.800 C 212.335 218.800,212.246 224.155,212.301 230.700 M225.067 219.067 C 224.920 219.213,224.800 227.592,224.800 237.687 L 224.800 256.040 218.819 255.920 C 215.529 255.854,212.979 255.941,213.152 256.113 C 213.647 256.606,249.283 256.477,249.780 255.980 C 250.045 255.716,250.274 251.174,250.400 243.681 L 250.600 231.800 255.945 231.688 C 259.824 231.607,261.469 231.717,261.945 232.088 C 262.529 232.544,262.540 232.524,262.051 231.900 C 261.356 231.014,251.430 230.846,250.279 231.700 C 249.678 232.146,249.594 233.476,249.503 244.000 L 249.400 255.800 237.600 255.800 L 225.800 255.800 225.800 237.300 C 225.800 227.125,225.695 218.800,225.567 218.800 C 225.438 218.800,225.213 218.920,225.067 219.067 M50.428 236.913 C 50.407 241.305,50.529 242.869,50.900 242.997 C 51.809 243.310,62.329 243.406,62.139 243.100 C 62.037 242.935,59.533 242.800,56.576 242.800 L 51.200 242.800 51.172 237.700 C 51.156 234.895,50.989 232.240,50.800 231.800 C 50.586 231.303,50.446 233.237,50.428 236.913 M181.600 231.584 L 175.400 231.800 175.289 237.460 C 175.153 244.407,175.646 243.947,168.172 244.100 L 162.200 244.223 168.300 244.312 C 176.334 244.428,176.000 244.728,176.000 237.400 L 176.000 232.000 187.535 232.000 L 199.070 232.000 199.334 249.700 C 199.480 259.435,199.599 270.420,199.600 274.111 L 199.600 280.822 193.900 280.711 L 188.200 280.600 188.000 274.884 C 187.758 267.971,188.227 268.414,181.149 268.406 C 174.446 268.399,174.853 267.980,174.712 275.027 L 174.600 280.600 168.600 280.891 C 165.300 281.052,159.969 281.290,156.754 281.420 L 150.908 281.657 150.660 280.729 C 150.523 280.218,150.408 271.838,150.405 262.108 L 150.400 244.415 151.300 244.206 C 151.795 244.090,154.450 243.946,157.200 243.884 L 162.200 243.773 156.776 243.686 C 149.186 243.565,150.021 241.221,149.901 263.000 L 149.800 281.400 143.600 281.600 C 139.429 281.735,137.714 281.913,138.359 282.146 C 138.887 282.336,144.332 282.360,150.459 282.198 L 161.600 281.905 161.600 293.553 L 161.600 305.200 137.600 305.200 L 113.600 305.200 113.600 299.824 C 113.600 296.867,113.465 294.363,113.300 294.261 C 112.993 294.071,113.091 304.592,113.404 305.503 C 113.541 305.901,118.604 305.985,137.689 305.903 L 161.800 305.800 161.906 294.225 C 162.037 279.950,161.377 281.200,168.782 281.200 C 175.606 281.200,175.200 281.607,175.200 274.763 C 175.200 268.264,174.626 268.800,181.584 268.800 C 187.905 268.800,187.548 268.412,187.688 275.427 L 187.800 281.000 193.800 281.000 L 199.800 281.000 199.903 256.645 C 199.978 238.988,199.882 232.140,199.554 231.745 C 199.075 231.167,194.699 231.128,181.600 231.584 M63.288 262.500 L 63.200 268.400 68.567 268.400 C 71.519 268.400,74.264 268.507,74.667 268.638 C 75.277 268.835,75.299 268.803,74.800 268.444 C 74.444 268.188,72.048 268.010,68.911 268.006 L 63.622 268.000 63.499 262.300 L 63.376 256.600 63.288 262.500 M262.487 262.420 C 262.439 265.401,262.265 268.012,262.100 268.223 C 261.935 268.433,262.030 268.413,262.312 268.176 C 262.694 267.857,262.792 266.377,262.699 262.374 L 262.575 257.000 262.487 262.420 M75.521 275.037 L 75.641 280.800 81.192 280.800 C 88.380 280.800,88.000 280.419,88.000 287.629 L 88.000 293.200 93.900 293.112 L 99.800 293.024 94.100 292.901 L 88.400 292.778 88.400 287.389 C 88.400 280.174,88.626 280.400,81.400 280.400 L 76.000 280.400 76.000 275.024 C 76.000 272.067,75.865 269.563,75.700 269.461 C 75.535 269.358,75.454 271.868,75.521 275.037 M163.288 357.131 C 162.904 357.379,162.804 358.807,162.888 362.831 L 163.000 368.200 168.800 368.200 L 174.600 368.200 174.600 362.600 L 174.600 357.000 169.200 356.900 C 166.230 356.845,163.570 356.949,163.288 357.131 M288.000 362.800 L 288.000 368.400 293.800 368.400 L 299.600 368.400 299.600 362.800 L 299.600 357.200 293.800 357.200 L 288.000 357.200 288.000 362.800 " stroke="none" fill="#d46c62" fill-rule="evenodd"></path><path id="path3" d="M163.300 19.465 C 162.934 19.613,162.800 21.144,162.800 25.184 C 162.800 29.296,162.664 30.815,162.266 31.145 C 161.910 31.441,157.832 31.623,149.966 31.694 L 138.200 31.800 138.088 37.182 C 137.940 44.294,138.227 44.000,131.418 44.000 C 127.862 44.000,126.005 44.155,125.680 44.480 C 125.045 45.115,124.981 104.443,125.614 105.626 C 125.992 106.332,126.498 106.400,131.334 106.400 C 137.971 106.400,137.600 106.028,137.600 112.680 L 137.600 118.000 126.050 118.000 C 119.698 118.000,113.938 118.113,113.250 118.250 L 112.000 118.500 112.000 137.600 L 112.000 156.700 113.250 156.950 C 113.938 157.088,119.518 157.200,125.650 157.200 L 136.800 157.200 136.800 163.400 L 136.800 169.600 142.990 169.600 L 149.179 169.600 149.290 175.700 L 149.400 181.800 162.000 181.800 L 174.600 181.800 174.711 187.460 C 174.846 194.379,174.409 193.948,181.427 194.088 L 187.000 194.200 186.866 206.066 C 186.736 217.650,186.752 217.952,187.566 218.766 C 188.677 219.877,212.920 220.109,212.000 219.000 C 211.578 218.492,209.708 218.400,199.751 218.400 L 188.000 218.400 188.000 206.480 C 188.000 192.259,188.669 193.600,181.569 193.600 C 174.844 193.600,175.253 194.020,175.112 186.973 L 175.000 181.400 162.600 181.200 L 150.200 181.000 150.089 175.340 C 149.954 168.421,150.391 168.852,143.373 168.712 L 137.800 168.600 137.688 163.027 C 137.542 155.711,138.820 156.400,125.384 156.400 C 119.159 156.400,113.781 156.291,113.433 156.157 C 112.468 155.787,112.468 119.413,113.433 119.043 C 114.709 118.553,136.612 118.772,137.120 119.280 C 137.445 119.605,137.600 121.465,137.600 125.031 C 137.600 131.952,136.325 131.358,150.292 130.942 L 161.800 130.600 162.200 118.800 L 162.600 107.000 169.000 106.754 C 180.920 106.296,186.661 106.351,187.139 106.927 C 187.396 107.236,187.623 109.752,187.688 113.027 L 187.800 118.600 205.964 118.704 C 218.344 118.775,224.295 118.947,224.654 119.244 C 225.034 119.560,225.210 121.300,225.290 125.540 L 225.400 131.400 231.200 131.600 L 237.000 131.800 237.107 137.400 C 237.240 144.368,236.867 144.000,243.796 144.000 C 250.348 144.000,250.000 144.342,250.000 137.894 C 250.000 130.825,249.645 131.200,256.334 131.200 C 263.209 131.200,262.800 130.795,262.800 137.600 C 262.800 144.406,262.390 144.000,269.272 144.000 C 276.014 144.000,275.250 141.460,275.111 163.400 L 275.000 181.000 269.200 181.200 C 261.835 181.454,262.400 180.924,262.400 187.581 C 262.400 194.154,263.003 193.600,255.847 193.600 C 249.218 193.600,249.600 193.205,249.600 200.051 C 249.600 207.171,249.225 206.800,256.429 206.800 L 262.000 206.800 262.000 212.572 L 262.000 218.344 255.700 218.611 C 252.235 218.757,244.090 218.905,237.600 218.939 L 225.800 219.000 225.800 237.400 L 225.800 255.800 237.600 255.800 L 249.400 255.800 249.499 244.000 C 249.593 232.781,249.637 232.168,250.392 231.542 C 251.176 230.892,251.173 230.880,250.193 230.634 L 249.200 230.385 249.200 225.039 C 249.200 218.675,248.533 219.213,256.420 219.205 C 263.215 219.199,262.800 219.630,262.800 212.569 C 262.800 205.614,263.237 206.053,256.173 205.912 L 250.600 205.800 250.484 200.800 C 250.313 193.369,249.749 194.000,256.559 194.000 C 263.579 194.000,263.145 194.415,263.288 187.574 L 263.400 182.200 269.500 182.090 L 275.600 181.979 275.600 162.590 L 275.600 143.200 269.600 143.200 L 263.600 143.200 263.600 137.774 C 263.600 130.308,264.108 130.800,256.394 130.800 C 248.877 130.800,249.644 130.022,249.498 137.800 L 249.400 143.000 243.600 143.000 L 237.800 143.000 237.688 137.427 C 237.548 130.427,237.950 130.847,231.260 130.711 L 225.800 130.600 225.800 124.600 L 225.800 118.600 256.400 118.400 L 287.000 118.200 287.111 112.540 C 287.246 105.621,286.809 106.052,293.827 105.912 L 299.400 105.800 299.400 75.000 L 299.400 44.200 293.827 44.088 C 286.809 43.948,287.246 44.379,287.111 37.460 L 287.000 31.800 275.234 31.694 C 267.368 31.623,263.290 31.441,262.934 31.145 C 262.536 30.815,262.400 29.297,262.400 25.194 C 262.400 20.540,262.302 19.648,261.767 19.443 C 261.010 19.152,164.021 19.174,163.300 19.465 M211.800 43.800 L 211.800 55.800 187.417 55.903 C 171.232 55.972,162.894 56.146,162.617 56.422 C 162.388 56.650,162.110 59.394,162.000 62.518 L 161.800 68.200 150.000 68.200 L 138.200 68.200 138.200 56.400 L 138.200 44.600 150.133 44.400 C 164.509 44.159,163.200 44.861,163.200 37.390 C 163.200 34.499,163.321 32.012,163.470 31.864 C 163.618 31.715,174.553 31.640,187.770 31.697 L 211.800 31.800 211.800 43.800 M249.400 56.400 L 249.400 68.200 237.600 68.200 L 225.800 68.200 225.694 56.294 L 225.588 44.388 237.494 44.494 L 249.400 44.600 249.400 56.400 M187.371 81.429 C 187.914 81.971,188.000 83.656,188.000 93.775 L 188.000 105.493 176.039 105.786 C 169.461 105.947,163.701 105.959,163.239 105.812 C 162.229 105.492,161.889 82.271,162.880 81.280 C 163.690 80.470,186.551 80.608,187.371 81.429 M225.106 105.881 L 225.212 117.962 223.906 118.196 C 223.188 118.324,214.860 118.378,205.400 118.315 L 188.200 118.200 188.200 112.200 L 188.200 106.200 199.767 106.094 C 213.674 105.966,212.400 106.619,212.400 99.618 C 212.400 92.961,211.738 93.558,218.977 93.690 L 225.000 93.800 225.106 105.881 M175.378 131.713 C 175.268 132.001,175.227 134.839,175.289 138.018 L 175.400 143.800 187.152 143.906 C 201.408 144.035,200.052 144.743,199.910 137.242 L 199.800 131.400 187.690 131.294 C 177.996 131.209,175.539 131.293,175.378 131.713 M199.400 137.400 L 199.400 143.000 187.500 143.106 L 175.600 143.212 175.600 137.673 C 175.600 134.626,175.723 132.011,175.873 131.861 C 176.023 131.711,181.378 131.636,187.773 131.694 L 199.400 131.800 199.400 137.400 M312.414 156.774 C 311.857 157.814,311.840 194.000,312.396 194.000 C 312.650 194.000,312.829 187.305,312.896 175.300 L 313.000 156.600 324.846 156.494 C 334.396 156.409,336.779 156.493,337.140 156.928 C 337.442 157.292,337.622 161.289,337.694 169.234 L 337.800 181.000 343.373 181.112 C 346.648 181.177,349.164 181.404,349.473 181.661 C 350.207 182.270,350.252 217.588,349.520 218.320 C 348.902 218.938,313.622 219.017,312.879 218.401 C 312.601 218.172,312.616 218.257,312.913 218.602 C 313.587 219.384,348.909 219.539,349.844 218.764 C 350.645 218.098,350.674 181.925,349.873 181.261 C 349.564 181.004,347.048 180.777,343.773 180.712 L 338.200 180.600 338.094 168.834 C 338.023 160.968,337.841 156.890,337.545 156.534 C 336.727 155.548,312.949 155.775,312.414 156.774 M200.480 156.880 C 199.774 157.586,199.815 167.749,200.527 168.339 C 200.836 168.596,203.352 168.823,206.627 168.888 L 212.200 169.000 212.400 174.916 C 212.558 179.582,212.727 180.911,213.200 181.210 C 214.134 181.798,236.526 181.714,237.120 181.120 C 237.788 180.452,237.788 169.948,237.120 169.280 C 236.768 168.928,233.458 168.800,224.720 168.800 L 212.800 168.800 212.800 163.080 C 212.800 159.164,212.649 157.209,212.320 156.880 C 211.652 156.212,201.148 156.212,200.480 156.880 M211.911 162.711 L 212.022 168.422 206.311 168.311 L 200.600 168.200 200.487 163.021 C 200.339 156.167,199.781 156.757,206.292 156.889 L 211.800 157.000 211.911 162.711 M236.712 169.537 C 237.096 169.781,237.196 171.204,237.112 175.231 L 237.000 180.600 225.200 180.600 L 213.400 180.600 213.287 175.421 C 213.226 172.573,213.265 170.008,213.375 169.721 C 213.604 169.124,235.785 168.949,236.712 169.537 M149.843 193.833 C 149.195 195.522,149.590 205.467,150.331 206.138 C 151.190 206.915,160.663 207.115,162.026 206.386 C 162.969 205.882,163.230 194.590,162.320 193.680 C 161.519 192.879,150.155 193.018,149.843 193.833 M161.800 200.000 L 161.800 205.800 156.200 205.800 L 150.600 205.800 150.488 200.420 C 150.340 193.337,149.771 193.957,156.292 194.089 L 161.800 194.200 161.800 200.000 M37.680 206.480 C 36.971 207.189,37.013 218.147,37.727 218.739 C 38.036 218.996,40.552 219.223,43.827 219.288 L 49.400 219.400 49.615 231.600 C 49.733 238.310,49.868 243.845,49.915 243.900 C 49.962 243.955,52.588 244.000,55.751 244.000 C 60.057 244.000,61.613 244.134,61.945 244.534 C 62.242 244.891,62.423 249.020,62.494 257.034 L 62.600 269.000 68.600 269.200 L 74.600 269.400 74.698 274.600 C 74.843 282.317,74.158 281.559,81.105 281.689 L 87.000 281.800 87.200 287.800 L 87.400 293.800 99.366 293.906 C 107.380 293.977,111.509 294.158,111.866 294.455 C 112.266 294.786,112.400 296.335,112.400 300.606 C 112.400 305.442,112.497 306.352,113.033 306.557 C 114.180 306.998,161.191 306.833,162.026 306.386 C 162.764 305.991,162.800 305.430,162.800 294.266 C 162.800 280.267,162.102 281.600,169.437 281.600 C 174.476 281.600,175.144 281.521,175.381 280.900 C 175.595 280.339,175.548 280.299,175.144 280.700 C 174.788 281.053,172.973 281.200,168.982 281.200 C 161.344 281.200,162.038 279.923,161.906 294.225 L 161.800 305.800 137.600 305.800 L 113.400 305.800 113.200 300.118 C 113.090 296.994,112.820 294.263,112.600 294.051 C 112.375 293.834,106.901 293.539,100.100 293.376 L 88.000 293.088 88.000 287.573 C 88.000 280.426,88.378 280.800,81.171 280.800 L 75.600 280.800 75.600 275.229 C 75.600 268.022,75.974 268.400,68.827 268.400 L 63.312 268.400 63.024 256.300 C 62.861 249.499,62.566 244.025,62.349 243.800 C 62.137 243.580,59.406 243.310,56.282 243.200 L 50.600 243.000 50.494 231.234 C 50.424 223.516,50.238 219.287,49.954 218.944 C 49.643 218.569,47.919 218.390,43.860 218.311 L 38.200 218.200 38.200 212.600 L 38.200 207.000 87.600 207.000 L 137.000 207.000 137.000 212.600 L 137.000 218.200 131.340 218.311 C 124.421 218.446,124.852 218.009,124.712 225.027 L 124.600 230.600 119.027 230.712 C 115.752 230.777,113.236 231.004,112.927 231.261 C 112.505 231.611,112.400 235.350,112.400 250.000 C 112.400 264.650,112.505 268.389,112.927 268.739 C 113.236 268.996,115.752 269.223,119.027 269.288 L 124.600 269.400 124.711 275.060 C 124.792 279.200,124.966 280.840,125.359 281.166 C 125.734 281.478,129.501 281.580,137.848 281.506 L 149.800 281.400 149.822 275.200 L 149.845 269.000 149.622 274.800 L 149.400 280.600 137.400 280.600 L 125.400 280.600 125.289 274.705 C 125.159 267.758,125.917 268.443,118.200 268.298 L 113.000 268.200 112.896 250.446 C 112.821 237.671,112.919 232.539,113.245 232.146 C 113.589 231.731,115.076 231.600,119.439 231.600 L 125.179 231.600 125.290 225.500 L 125.400 219.400 131.600 219.200 L 137.800 219.000 137.910 213.139 C 138.004 208.203,137.920 207.177,137.382 206.639 C 136.542 205.800,38.517 205.643,37.680 206.480 M175.261 231.327 C 175.004 231.636,174.777 234.152,174.712 237.427 L 174.600 243.000 168.600 243.200 C 161.473 243.438,161.884 244.000,169.184 244.000 C 175.505 244.000,175.148 244.388,175.288 237.373 L 175.400 231.800 187.101 231.452 C 196.201 231.180,198.933 231.213,199.395 231.596 C 199.890 232.007,200.006 234.042,200.094 243.944 L 200.200 255.800 200.550 244.269 C 200.800 236.026,200.774 232.461,200.459 231.769 L 200.017 230.800 187.858 230.800 C 178.288 230.800,175.605 230.912,175.261 231.327 M262.977 243.800 C 262.977 250.400,263.032 253.156,263.099 249.925 C 263.166 246.693,263.166 241.293,263.099 237.925 C 263.032 234.556,262.977 237.200,262.977 243.800 M162.666 356.181 C 161.740 356.676,159.386 356.808,149.866 356.894 L 138.200 357.000 138.200 368.800 L 138.200 380.600 162.400 380.600 L 186.600 380.600 186.706 368.537 L 186.812 356.474 180.706 356.227 C 163.863 355.546,163.851 355.546,162.666 356.181 M275.106 356.287 L 263.212 356.412 262.969 357.383 C 262.834 357.917,262.877 363.359,263.062 369.477 L 263.400 380.600 287.600 380.600 L 311.800 380.600 311.800 368.800 L 311.800 357.000 305.800 356.702 C 296.962 356.262,288.447 356.147,275.106 356.287 M174.600 362.600 L 174.600 368.200 168.800 368.200 L 163.000 368.200 162.888 362.831 C 162.752 356.339,162.291 356.772,169.200 356.900 L 174.600 357.000 174.600 362.600 M299.600 362.800 L 299.600 368.400 293.800 368.400 L 288.000 368.400 288.000 362.800 L 288.000 357.200 293.800 357.200 L 299.600 357.200 299.600 362.800 " stroke="none" fill="#744236" fill-rule="evenodd"></path><path id="path4" d="M212.178 193.760 C 211.565 194.190,208.723 194.388,199.951 194.613 L 188.524 194.907 188.262 203.318 C 188.118 207.944,188.000 213.222,188.000 215.048 L 188.000 218.367 200.300 218.514 C 225.983 218.822,236.376 218.789,237.408 218.397 C 238.011 218.168,243.334 218.000,250.026 218.000 L 261.600 218.000 261.600 212.600 L 261.600 207.200 255.800 207.200 C 252.610 207.200,249.975 207.155,249.945 207.100 C 249.914 207.045,249.779 204.030,249.645 200.400 L 249.400 193.800 242.400 193.549 C 228.314 193.043,213.050 193.150,212.178 193.760 M151.200 200.000 L 151.200 205.200 156.400 205.200 L 161.600 205.200 161.600 200.000 L 161.600 194.800 156.400 194.800 L 151.200 194.800 151.200 200.000 M44.100 207.099 L 38.400 207.222 38.400 212.611 L 38.400 218.000 43.932 218.000 C 50.709 218.000,50.296 217.505,50.599 226.000 C 50.720 229.410,50.915 234.585,51.031 237.500 L 51.243 242.800 56.598 242.800 C 60.443 242.800,62.044 242.941,62.276 243.300 C 62.588 243.782,62.910 248.979,63.427 261.900 L 63.672 268.000 69.020 268.000 C 76.171 268.000,76.000 267.827,76.000 275.075 L 76.000 280.400 81.400 280.400 C 88.623 280.400,88.400 280.178,88.400 287.364 L 88.400 292.728 94.500 292.973 C 107.421 293.490,112.618 293.812,113.100 294.124 C 113.459 294.356,113.600 295.962,113.600 299.824 L 113.600 305.200 137.600 305.200 L 161.600 305.200 161.600 293.571 L 161.600 281.942 149.900 282.004 C 134.904 282.084,125.808 281.733,125.245 281.054 C 125.007 280.768,124.775 278.114,124.712 274.973 L 124.600 269.400 119.027 269.288 C 115.752 269.223,113.236 268.996,112.927 268.739 C 112.253 268.180,112.145 232.423,112.814 231.174 C 113.192 230.468,113.699 230.400,118.614 230.400 L 124.000 230.400 124.000 224.833 C 124.000 217.330,123.368 218.000,130.443 218.000 L 136.400 218.000 136.400 212.665 L 136.400 207.330 118.700 207.066 C 101.904 206.815,56.354 206.835,44.100 207.099 " stroke="none" fill="#e5bd1c" fill-rule="evenodd"></path><path id="path5" d="M161.600 11.600 L 161.600 18.000 149.000 18.000 L 136.400 18.000 136.400 24.200 L 136.400 30.400 130.200 30.400 L 124.000 30.400 124.000 36.600 L 124.000 42.800 117.800 42.800 L 111.600 42.800 111.599 74.300 L 111.599 105.800 117.799 105.680 L 124.000 105.561 124.005 75.080 C 124.008 58.316,124.119 44.195,124.252 43.700 C 124.489 42.818,124.611 42.800,130.436 42.800 L 136.379 42.800 136.490 36.700 L 136.600 30.600 149.100 30.494 L 161.600 30.389 161.600 24.194 L 161.600 18.000 212.600 18.000 L 263.600 18.000 263.600 24.200 L 263.600 30.400 276.000 30.400 L 288.400 30.400 288.400 36.600 L 288.400 42.800 294.582 42.800 L 300.764 42.800 300.996 44.100 C 301.123 44.815,301.177 59.260,301.114 76.200 L 301.000 107.000 294.700 107.110 L 288.400 107.220 288.400 113.410 L 288.400 119.600 257.200 119.600 L 226.000 119.600 226.000 124.990 L 226.000 130.379 232.100 130.490 L 238.200 130.600 238.310 136.700 L 238.421 142.800 243.810 142.800 L 249.200 142.800 249.200 136.595 L 249.200 130.389 262.300 130.495 L 275.400 130.600 275.795 131.500 C 276.180 132.377,276.347 132.400,282.295 132.400 L 288.400 132.400 288.400 126.000 L 288.400 119.600 294.800 119.600 L 301.200 119.600 301.200 113.400 L 301.200 107.200 307.400 107.200 L 313.600 107.200 313.600 75.000 L 313.600 42.800 307.400 42.800 L 301.200 42.800 301.200 36.600 L 301.200 30.400 294.800 30.400 L 288.400 30.400 288.400 24.200 L 288.400 18.000 276.000 18.000 L 263.600 18.000 263.600 11.600 L 263.600 5.200 212.600 5.200 L 161.600 5.200 161.600 11.600 M163.600 93.800 L 163.600 105.200 175.000 105.200 L 186.400 105.200 186.400 93.800 L 186.400 82.400 175.000 82.400 L 163.600 82.400 163.600 93.800 M213.510 100.900 L 213.400 107.000 200.900 107.106 L 188.400 107.211 188.400 112.606 L 188.400 118.000 206.200 118.000 L 224.000 118.000 224.000 106.400 L 224.000 94.800 218.810 94.800 L 213.621 94.800 213.510 100.900 M176.000 137.400 L 176.000 142.800 187.600 142.800 L 199.200 142.800 199.200 137.400 L 199.200 132.000 187.600 132.000 L 176.000 132.000 176.000 137.400 M299.200 161.600 L 299.200 180.400 293.670 180.400 C 286.255 180.400,286.400 180.258,286.400 187.526 L 286.400 192.800 281.261 192.800 C 277.651 192.800,275.777 192.968,274.961 193.365 C 274.102 193.783,270.835 194.017,262.400 194.265 L 251.000 194.600 250.889 200.100 L 250.777 205.600 256.509 205.600 C 263.687 205.600,263.200 205.091,263.200 212.600 C 263.200 220.124,263.715 219.600,256.320 219.600 L 250.400 219.600 250.400 225.000 L 250.400 230.400 256.300 230.406 C 264.199 230.414,263.379 228.917,263.516 243.585 L 263.633 256.000 269.156 256.000 L 274.679 256.000 274.897 231.792 C 275.061 213.506,275.235 207.440,275.606 206.992 C 275.995 206.524,277.202 206.400,281.369 206.400 C 287.956 206.400,287.598 206.754,287.606 200.220 C 287.609 197.349,287.744 194.795,287.906 194.545 C 288.107 194.233,291.887 193.996,299.900 193.794 L 311.600 193.499 311.600 175.575 C 311.600 164.898,311.758 157.237,311.990 156.626 L 312.380 155.600 324.910 155.600 C 334.122 155.600,337.567 155.727,337.920 156.080 C 338.272 156.432,338.400 159.742,338.400 168.480 L 338.400 180.400 344.151 180.400 C 348.521 180.400,350.011 180.531,350.355 180.946 C 350.681 181.339,350.779 186.783,350.704 200.446 L 350.600 219.400 344.100 219.510 L 337.600 219.620 337.600 225.402 C 337.600 232.227,338.344 231.557,330.600 231.702 L 325.400 231.800 325.200 237.800 L 325.000 243.800 306.836 243.904 C 294.462 243.975,288.505 244.147,288.147 244.444 C 287.769 244.758,287.590 246.467,287.511 250.540 L 287.400 256.200 282.200 256.298 C 279.340 256.351,276.595 256.490,276.100 256.605 L 275.200 256.815 275.200 274.928 C 275.200 288.482,275.321 293.161,275.680 293.520 C 276.012 293.852,278.053 294.000,282.280 294.000 L 288.400 294.000 288.400 281.800 L 288.400 269.600 294.800 269.600 L 301.200 269.600 301.200 263.400 L 301.200 257.200 313.600 257.200 L 326.000 257.200 326.000 251.000 L 326.000 244.800 332.200 244.800 L 338.400 244.800 338.400 238.600 L 338.400 232.400 351.000 232.400 L 363.600 232.400 363.600 200.200 L 363.600 168.000 357.400 168.000 L 351.200 168.000 351.200 155.400 L 351.200 142.800 325.200 142.800 L 299.200 142.800 299.200 161.600 M200.800 162.600 L 200.800 168.000 206.200 168.000 L 211.600 168.000 211.600 162.600 L 211.600 157.200 206.200 157.200 L 200.800 157.200 200.800 162.600 M213.600 175.000 L 213.600 180.400 225.200 180.400 L 236.800 180.400 236.800 175.000 L 236.800 169.600 225.200 169.600 L 213.600 169.600 213.600 175.000 M24.000 200.000 L 24.000 219.600 30.200 219.600 L 36.400 219.600 36.400 232.200 L 36.400 244.800 42.800 244.800 L 49.200 244.800 49.200 257.200 L 49.200 269.600 55.400 269.600 L 61.600 269.600 61.600 276.000 L 61.600 282.400 67.800 282.400 L 74.000 282.400 74.000 288.600 L 74.000 294.800 80.200 294.800 L 86.400 294.800 86.400 301.000 L 86.400 307.200 99.000 307.200 L 111.600 307.200 111.600 313.400 L 111.600 319.600 130.400 319.600 L 149.200 319.600 149.200 331.200 L 149.200 342.800 142.800 342.800 L 136.400 342.800 136.400 348.990 L 136.400 355.179 130.300 355.290 L 124.200 355.400 124.096 375.100 L 123.992 394.800 162.596 394.800 L 201.200 394.800 201.200 388.600 L 201.200 382.400 207.400 382.400 L 213.600 382.400 213.600 376.000 L 213.600 369.600 219.800 369.600 L 226.000 369.600 226.000 344.600 L 226.000 319.600 231.198 319.600 L 236.395 319.600 236.498 350.900 L 236.600 382.200 242.900 382.310 L 249.200 382.420 249.200 388.610 L 249.200 394.800 287.600 394.800 L 326.000 394.800 326.000 375.000 L 326.000 355.200 319.800 355.200 L 313.600 355.200 313.600 349.000 L 313.600 342.800 307.404 342.800 L 301.208 342.800 301.104 324.100 L 301.000 305.400 294.605 305.400 L 288.211 305.400 287.745 306.400 C 287.397 307.146,287.345 313.498,287.539 331.400 L 287.800 355.400 299.800 355.800 C 306.400 356.020,312.025 356.346,312.300 356.524 C 313.257 357.143,312.996 380.667,312.026 381.186 C 310.959 381.757,264.241 381.757,263.174 381.186 C 262.467 380.808,262.399 380.297,262.394 375.286 C 262.386 368.326,262.878 368.846,256.184 368.712 L 250.600 368.600 250.332 344.280 C 250.134 326.258,249.940 319.809,249.583 319.380 C 249.208 318.927,247.947 318.800,243.831 318.800 C 240.265 318.800,238.405 318.645,238.080 318.320 C 237.377 317.617,237.396 295.065,238.100 294.490 C 238.395 294.249,243.324 293.961,250.094 293.788 C 263.702 293.442,262.458 294.118,262.312 287.145 L 262.200 281.800 243.800 281.800 L 225.400 281.800 225.296 300.293 L 225.192 318.787 224.296 318.996 C 223.803 319.111,221.060 319.249,218.200 319.302 L 213.000 319.400 212.749 326.400 C 212.611 330.250,212.476 341.272,212.449 350.892 L 212.400 368.385 211.500 368.608 C 211.005 368.731,208.350 368.779,205.600 368.716 L 200.600 368.600 200.493 363.000 C 200.360 356.032,200.733 356.400,193.804 356.400 C 186.974 356.400,187.600 355.128,187.600 369.000 C 187.600 377.520,187.471 380.769,187.120 381.120 C 186.298 381.942,138.656 381.798,137.829 380.971 C 137.008 380.151,136.870 357.290,137.680 356.480 C 138.032 356.128,141.337 356.000,150.056 356.000 C 156.599 356.000,162.033 355.865,162.130 355.700 C 162.228 355.535,162.440 344.555,162.601 331.300 L 162.894 307.200 138.347 307.195 C 124.846 307.192,113.400 307.082,112.910 306.951 C 112.047 306.719,112.017 306.534,111.910 300.656 L 111.800 294.600 99.400 294.400 L 87.000 294.200 86.890 288.110 L 86.779 282.021 80.690 281.910 L 74.600 281.800 74.490 275.710 L 74.379 269.621 68.290 269.510 L 62.200 269.400 62.000 257.000 L 61.800 244.600 55.730 244.490 L 49.659 244.379 49.384 243.126 C 49.232 242.437,49.240 236.866,49.401 230.747 L 49.694 219.621 43.347 219.510 L 37.000 219.400 36.890 213.139 C 36.797 207.839,36.878 206.779,37.419 206.239 C 37.996 205.661,42.767 205.600,87.606 205.600 L 137.155 205.600 137.777 206.489 C 138.267 207.188,138.400 208.543,138.400 212.834 L 138.400 218.290 149.758 218.582 C 164.038 218.948,162.800 219.517,162.800 212.586 L 162.800 207.200 156.800 207.200 C 148.773 207.200,149.200 207.650,149.200 199.200 L 149.200 192.800 100.200 192.800 L 51.200 192.800 51.200 186.600 L 51.200 180.400 37.600 180.400 L 24.000 180.400 24.000 200.000 M162.950 182.587 C 162.826 182.910,162.876 188.355,163.062 194.687 L 163.400 206.200 175.000 206.200 L 186.600 206.200 186.600 200.400 L 186.600 194.600 181.027 194.488 C 173.957 194.346,174.400 194.797,174.400 187.751 L 174.400 182.000 168.787 182.000 C 164.222 182.000,163.133 182.110,162.950 182.587 M175.280 219.280 C 174.955 219.605,174.800 221.476,174.800 225.080 L 174.800 230.400 181.200 230.400 L 187.600 230.400 187.600 225.080 C 187.600 218.417,187.990 218.800,181.200 218.800 C 177.502 218.800,175.606 218.954,175.280 219.280 M125.689 225.100 L 125.800 230.600 131.300 230.711 L 136.800 230.823 136.800 225.211 L 136.800 219.600 131.189 219.600 L 125.577 219.600 125.689 225.100 M163.047 231.822 C 162.911 232.176,162.800 234.791,162.800 237.633 L 162.800 242.800 168.611 242.800 L 174.422 242.800 174.311 237.100 L 174.200 231.400 168.747 231.289 C 164.038 231.193,163.260 231.266,163.047 231.822 M113.296 250.100 L 113.400 268.200 118.200 268.316 C 120.840 268.380,123.405 268.331,123.900 268.208 L 124.800 267.985 124.799 258.092 C 124.798 252.652,124.680 244.555,124.535 240.100 L 124.273 232.000 118.732 232.000 L 113.192 232.000 113.296 250.100 M125.867 269.467 C 125.407 269.926,125.558 280.327,126.028 280.617 C 126.264 280.763,131.574 280.750,137.828 280.589 L 149.200 280.295 149.200 274.748 L 149.200 269.200 137.667 269.200 C 131.323 269.200,126.013 269.320,125.867 269.467 M163.381 282.505 C 163.275 282.783,163.235 288.228,163.294 294.605 L 163.400 306.200 169.000 306.200 L 174.600 306.200 174.950 294.718 C 175.142 288.403,175.193 282.958,175.062 282.618 C 174.746 281.793,163.696 281.685,163.381 282.505 " stroke="none" fill="#0d050d" fill-rule="evenodd"></path><path id="path6" d="M311.870 194.600 C 311.414 195.706,311.998 218.474,312.498 219.100 C 312.805 219.484,315.695 219.578,324.949 219.506 L 337.000 219.412 325.144 219.300 C 315.921 219.213,313.191 219.071,312.850 218.660 C 312.559 218.310,312.376 214.045,312.306 205.966 C 312.246 199.091,312.057 194.148,311.870 194.600 M138.000 224.767 C 138.000 231.768,137.491 231.200,143.763 231.200 C 150.367 231.200,150.000 231.570,150.000 224.920 L 150.000 219.600 144.000 219.600 L 138.000 219.600 138.000 224.767 M211.992 232.000 C 211.666 253.371,211.716 256.377,212.400 256.809 C 212.730 257.017,215.565 257.191,218.700 257.194 L 224.400 257.200 224.400 262.920 C 224.400 266.836,224.551 268.791,224.880 269.120 C 225.240 269.480,230.056 269.600,244.090 269.600 L 262.820 269.600 263.231 268.520 C 263.481 267.860,263.554 265.327,263.419 262.020 C 263.296 259.039,263.097 250.976,262.977 244.103 C 262.718 229.308,263.453 230.721,256.104 230.901 L 251.000 231.026 256.251 231.113 C 259.884 231.173,261.624 231.354,261.897 231.700 C 262.564 232.545,262.895 267.823,262.240 268.367 C 261.865 268.678,256.352 268.778,243.554 268.704 L 225.400 268.600 225.200 262.600 L 225.000 256.600 219.208 256.488 C 215.963 256.426,213.237 256.197,213.008 255.969 C 212.749 255.709,212.524 248.969,212.392 237.480 L 212.184 219.400 211.992 232.000 M125.689 237.700 L 125.800 243.400 131.369 243.512 C 138.067 243.646,137.586 244.126,137.594 237.300 L 137.600 232.000 131.589 232.000 L 125.578 232.000 125.689 237.700 M150.400 243.318 L 149.400 243.823 149.294 255.937 C 149.229 263.362,149.341 268.311,149.582 268.725 C 149.846 269.178,149.980 265.302,149.988 256.914 C 150.002 241.956,149.133 243.453,157.689 243.661 C 162.647 243.782,163.478 243.724,162.536 243.322 C 160.971 242.653,151.721 242.649,150.400 243.318 M200.442 248.200 C 200.359 250.400,200.181 258.680,200.046 266.600 L 199.800 281.000 193.800 281.000 L 187.800 281.000 187.688 275.427 C 187.548 268.412,187.905 268.800,181.584 268.800 C 174.626 268.800,175.200 268.264,175.200 274.763 C 175.200 278.579,175.048 280.410,174.700 280.801 C 174.275 281.278,174.304 281.282,174.900 280.832 C 175.505 280.374,175.600 279.579,175.600 274.951 L 175.600 269.600 181.170 269.600 L 186.741 269.600 186.870 275.415 C 186.974 280.048,187.122 281.308,187.600 281.609 C 188.599 282.239,199.817 282.103,200.355 281.454 C 200.682 281.061,200.778 275.779,200.700 262.554 C 200.640 252.459,200.524 246.000,200.442 248.200 " stroke="none" fill="#4c5494" fill-rule="evenodd"></path><path id="path7" d="M162.192 18.898 C 162.091 19.174,161.962 21.920,161.904 25.000 L 161.800 30.600 149.549 30.706 L 137.298 30.811 137.049 32.056 C 136.912 32.740,136.800 35.527,136.800 38.250 L 136.800 43.200 131.014 43.200 C 125.703 43.200,125.194 43.264,124.814 43.974 C 124.539 44.488,124.400 55.027,124.400 75.374 L 124.400 106.000 118.000 106.000 L 111.600 106.000 111.600 111.990 L 111.600 117.979 105.500 118.090 L 99.400 118.200 99.400 137.600 L 99.400 157.000 105.500 157.110 L 111.600 157.221 111.600 163.410 L 111.600 169.600 124.000 169.600 L 136.400 169.600 136.400 175.520 C 136.400 182.906,135.894 182.400,143.280 182.400 L 149.200 182.400 149.200 188.200 C 149.200 191.800,149.352 194.000,149.600 194.000 C 149.820 194.000,150.000 193.820,150.000 193.600 C 150.000 192.995,161.711 193.071,162.320 193.680 C 163.171 194.531,162.975 205.858,162.100 206.368 C 161.715 206.592,161.603 206.781,161.851 206.788 C 163.053 206.820,163.240 205.655,163.015 199.534 C 162.891 196.160,162.747 190.880,162.695 187.800 L 162.600 182.200 156.000 182.000 L 149.400 181.800 149.290 175.700 L 149.179 169.600 142.990 169.600 L 136.800 169.600 136.800 163.400 L 136.800 157.200 125.650 157.200 C 119.518 157.200,113.938 157.088,113.250 156.950 L 112.000 156.700 112.000 137.600 L 112.000 118.500 113.250 118.250 C 113.938 118.113,119.698 118.000,126.050 118.000 L 137.600 118.000 137.600 112.680 C 137.600 106.028,137.971 106.400,131.334 106.400 C 126.498 106.400,125.992 106.332,125.614 105.626 C 124.981 104.443,125.045 45.115,125.680 44.480 C 126.005 44.155,127.862 44.000,131.418 44.000 C 138.227 44.000,137.940 44.294,138.088 37.182 L 138.200 31.800 149.966 31.694 C 157.832 31.623,161.910 31.441,162.266 31.145 C 162.664 30.815,162.800 29.297,162.800 25.194 C 162.800 20.540,162.898 19.648,163.433 19.443 C 164.260 19.125,260.940 19.125,261.767 19.443 C 262.302 19.648,262.400 20.540,262.400 25.194 C 262.400 29.297,262.536 30.815,262.934 31.145 C 263.290 31.441,267.368 31.623,275.234 31.694 L 287.000 31.800 287.111 37.460 C 287.246 44.379,286.809 43.948,293.827 44.088 L 299.400 44.200 299.400 75.000 L 299.400 105.800 293.827 105.912 C 286.809 106.052,287.246 105.621,287.111 112.540 L 287.000 118.200 256.400 118.400 L 225.800 118.600 225.800 124.600 L 225.800 130.600 231.174 130.712 C 237.997 130.854,237.600 130.452,237.600 137.225 C 237.600 140.265,237.735 142.837,237.900 142.939 C 238.065 143.041,238.146 140.402,238.079 137.073 C 237.935 129.850,238.491 130.414,231.500 130.406 L 226.000 130.400 226.000 125.000 L 226.000 119.600 255.750 119.600 C 272.113 119.600,286.058 119.488,286.740 119.352 L 287.980 119.104 288.090 113.052 L 288.200 107.000 294.252 106.890 L 300.304 106.780 300.552 105.540 C 301.070 102.949,300.832 44.595,300.300 43.883 C 299.880 43.320,298.877 43.196,294.000 43.107 L 288.200 43.000 288.000 37.000 L 287.800 31.000 275.600 30.800 L 263.400 30.600 263.200 24.600 L 263.000 18.600 212.688 18.498 C 172.646 18.418,162.339 18.499,162.192 18.898 M162.880 81.280 C 162.061 82.099,162.207 105.440,163.033 105.757 C 163.381 105.891,166.306 105.962,169.533 105.916 L 175.400 105.833 169.400 105.616 L 163.400 105.400 163.294 93.700 L 163.188 82.000 174.994 82.000 L 186.800 82.000 186.800 93.800 C 186.800 104.022,186.880 105.600,187.400 105.600 C 188.326 105.600,188.299 82.356,187.371 81.429 C 186.551 80.608,163.690 80.470,162.880 81.280 M212.677 93.857 C 212.525 94.009,212.400 96.601,212.400 99.618 C 212.400 106.619,213.674 105.966,199.767 106.094 L 188.200 106.200 188.200 112.200 L 188.200 118.200 206.100 118.206 L 224.000 118.212 206.200 118.102 L 188.400 117.992 188.400 112.396 L 188.400 106.800 200.386 106.800 C 214.590 106.800,213.200 107.556,213.200 99.826 L 213.200 94.400 218.800 94.400 L 224.400 94.400 224.400 106.200 C 224.400 113.914,224.541 118.000,224.806 118.000 C 225.074 118.000,225.176 113.886,225.106 105.900 L 225.000 93.800 218.977 93.690 C 215.664 93.629,212.829 93.704,212.677 93.857 M256.600 130.670 C 264.051 130.847,263.600 130.396,263.600 137.676 L 263.600 143.200 269.600 143.200 L 275.600 143.200 275.600 162.590 L 275.600 181.979 269.500 182.090 L 263.400 182.200 263.289 187.660 C 263.153 194.345,263.571 193.943,256.573 194.109 C 251.348 194.233,251.362 194.235,256.800 194.134 C 265.529 193.973,274.937 193.441,275.500 193.076 C 275.858 192.845,276.000 191.278,276.000 187.576 L 276.000 182.400 281.125 182.400 C 286.223 182.400,286.256 182.394,287.329 181.274 L 288.408 180.148 288.304 161.574 L 288.200 143.000 282.111 142.890 L 276.022 142.779 275.911 137.294 C 275.770 130.318,277.017 130.918,262.200 130.699 C 255.820 130.605,253.300 130.592,256.600 130.670 M181.700 131.899 C 184.945 131.966,190.255 131.966,193.500 131.899 C 196.745 131.832,194.090 131.777,187.600 131.777 C 181.110 131.777,178.455 131.832,181.700 131.899 M168.689 181.893 L 174.378 182.022 174.506 187.411 L 174.635 192.801 174.618 187.301 L 174.600 181.800 168.800 181.782 L 163.000 181.765 168.689 181.893 M175.149 193.700 C 175.625 194.307,176.438 194.400,181.239 194.400 L 186.780 194.400 186.906 200.600 L 187.031 206.801 187.016 200.500 L 187.000 194.200 181.427 194.088 C 177.808 194.016,175.634 193.805,175.227 193.488 C 174.675 193.058,174.665 193.083,175.149 193.700 M250.582 200.299 L 250.600 205.800 256.173 205.912 C 263.240 206.053,262.800 205.610,262.800 212.600 C 262.800 219.603,263.267 219.145,255.973 219.300 L 250.200 219.424 256.071 219.512 C 263.646 219.626,263.200 220.058,263.200 212.600 C 263.200 205.193,263.597 205.600,256.383 205.600 L 250.823 205.600 250.694 200.199 L 250.565 194.799 250.582 200.299 M87.715 205.997 C 131.144 206.175,137.276 206.274,137.609 206.800 C 137.845 207.175,137.990 207.218,137.994 206.914 C 138.010 205.643,136.253 205.600,87.326 205.697 L 38.200 205.794 87.715 205.997 M36.888 212.820 C 36.778 220.109,36.291 219.622,43.580 219.512 L 49.400 219.425 43.827 219.300 C 36.813 219.144,37.249 219.575,37.099 212.660 L 36.976 207.000 36.888 212.820 M125.375 219.720 C 125.265 220.006,125.232 222.661,125.300 225.620 L 125.425 231.000 125.513 225.311 L 125.600 219.622 131.300 219.499 L 137.000 219.376 131.287 219.288 C 126.904 219.220,125.528 219.321,125.375 219.720 M249.200 224.957 C 249.200 230.161,249.619 231.715,250.724 230.609 C 250.839 230.494,250.723 230.400,250.467 230.400 C 250.134 230.400,250.000 228.848,250.000 225.000 C 250.000 221.667,249.847 219.600,249.600 219.600 C 249.353 219.600,249.200 221.652,249.200 224.957 M116.082 231.896 C 117.558 231.973,120.078 231.973,121.682 231.897 C 123.287 231.821,122.080 231.758,119.000 231.758 C 115.920 231.757,114.607 231.819,116.082 231.896 M174.558 237.400 C 174.558 240.480,174.621 241.687,174.697 240.082 C 174.773 238.478,174.773 235.958,174.696 234.482 C 174.619 233.007,174.557 234.320,174.558 237.400 M112.889 250.076 C 112.840 259.908,112.935 268.036,113.100 268.139 C 113.373 268.307,113.367 254.961,113.088 238.600 C 113.028 235.080,112.939 240.244,112.889 250.076 M49.763 243.690 C 49.838 244.065,51.445 244.253,55.833 244.400 L 61.800 244.600 61.906 256.780 C 61.985 265.913,62.136 269.039,62.506 269.274 C 62.778 269.447,65.565 269.591,68.700 269.594 L 74.400 269.600 74.400 275.320 C 74.400 282.462,73.938 282.000,81.080 282.000 L 86.800 282.000 86.806 287.700 C 86.809 290.835,86.953 293.622,87.126 293.894 C 87.361 294.264,90.487 294.415,99.620 294.494 L 111.800 294.600 112.000 300.567 C 112.147 304.955,112.335 306.562,112.710 306.637 C 112.991 306.694,113.036 306.649,112.810 306.537 C 112.559 306.412,112.400 304.121,112.400 300.616 C 112.400 296.337,112.266 294.786,111.866 294.455 C 111.509 294.158,107.380 293.977,99.366 293.906 L 87.400 293.800 87.200 287.800 L 87.000 281.800 81.105 281.689 C 74.158 281.559,74.843 282.317,74.698 274.600 L 74.600 269.400 68.600 269.200 L 62.600 269.000 62.494 257.034 C 62.423 249.020,62.242 244.891,61.945 244.534 C 61.614 244.134,60.063 244.000,55.784 244.000 C 52.279 244.000,49.988 243.841,49.863 243.590 C 49.752 243.365,49.706 243.410,49.763 243.690 M125.274 274.676 C 125.233 277.798,125.335 280.437,125.500 280.539 C 125.665 280.642,125.752 278.988,125.694 276.863 C 125.498 269.735,125.349 268.957,125.274 274.676 M162.894 294.080 C 162.808 304.914,162.738 305.996,162.100 306.368 C 161.715 306.592,161.603 306.781,161.851 306.788 C 163.100 306.822,163.212 305.669,163.100 293.952 L 162.987 282.200 162.894 294.080 M137.829 356.629 C 136.798 357.659,136.892 379.998,137.931 380.938 C 138.813 381.736,185.358 381.972,186.826 381.186 C 187.844 380.641,188.050 357.271,187.045 356.437 C 186.669 356.125,184.761 356.016,181.145 356.101 L 175.800 356.225 181.306 356.313 L 186.812 356.400 186.706 368.500 L 186.600 380.600 162.400 380.600 L 138.200 380.600 138.200 368.800 L 138.200 357.000 149.986 356.894 C 157.037 356.830,161.931 356.629,162.166 356.394 C 162.425 356.135,158.417 356.000,150.509 356.000 C 140.086 356.000,138.372 356.085,137.829 356.629 M262.624 356.774 C 261.682 357.815,262.104 380.047,263.084 381.027 C 263.990 381.933,311.264 381.879,312.171 380.971 C 312.992 380.151,313.130 357.290,312.320 356.480 C 311.987 356.147,309.887 356.000,305.453 356.000 C 297.445 356.000,297.630 356.533,305.732 356.800 L 311.800 357.000 311.800 368.800 L 311.800 380.600 287.600 380.600 L 263.400 380.600 263.062 369.477 C 262.877 363.359,262.834 357.917,262.969 357.383 L 263.212 356.412 275.106 356.300 L 287.000 356.188 275.162 356.094 C 263.901 356.005,263.290 356.038,262.624 356.774 " stroke="none" fill="#540c24" fill-rule="evenodd"></path><path id="path8" d="M161.600 24.194 L 161.600 30.389 149.100 30.494 L 136.600 30.600 136.490 36.700 L 136.379 42.800 130.436 42.800 C 124.611 42.800,124.489 42.818,124.252 43.700 C 124.119 44.195,124.008 58.320,124.005 75.090 L 124.000 105.579 117.900 105.701 L 111.800 105.822 118.100 105.911 L 124.400 106.000 124.400 75.374 C 124.400 55.027,124.539 44.488,124.814 43.974 C 125.194 43.264,125.703 43.200,131.014 43.200 L 136.800 43.200 136.800 38.250 C 136.800 35.527,136.912 32.740,137.049 32.056 L 137.298 30.811 149.549 30.706 L 161.800 30.600 162.000 24.600 L 162.200 18.600 212.600 18.600 L 263.000 18.600 263.200 24.600 L 263.400 30.600 275.600 30.800 L 287.800 31.000 288.000 37.000 L 288.200 43.000 294.000 43.107 C 298.877 43.196,299.880 43.320,300.300 43.883 C 300.832 44.595,301.070 102.949,300.552 105.540 L 300.304 106.780 294.252 106.890 L 288.200 107.000 288.090 113.074 C 287.982 118.992,287.957 119.151,287.090 119.319 C 286.339 119.464,286.372 119.500,287.300 119.546 L 288.400 119.600 288.400 113.410 L 288.400 107.220 294.700 107.110 L 301.000 107.000 301.114 76.200 C 301.177 59.260,301.123 44.815,300.996 44.100 L 300.764 42.800 294.582 42.800 L 288.400 42.800 288.400 36.600 L 288.400 30.400 276.000 30.400 L 263.600 30.400 263.600 24.200 L 263.600 18.000 212.600 18.000 L 161.600 18.000 161.600 24.194 M163.294 93.700 L 163.400 105.400 175.100 105.506 L 186.800 105.612 186.800 93.806 L 186.800 82.000 174.994 82.000 L 163.188 82.000 163.294 93.700 M186.400 93.800 L 186.400 105.200 175.000 105.200 L 163.600 105.200 163.600 93.800 L 163.600 82.400 175.000 82.400 L 186.400 82.400 186.400 93.800 M213.200 99.924 C 213.200 107.510,214.573 106.773,200.200 106.906 L 188.200 107.018 200.800 107.009 L 213.400 107.000 213.510 100.900 L 213.621 94.800 218.804 94.800 L 223.988 94.800 224.100 106.500 L 224.213 118.200 224.306 106.300 L 224.400 94.400 218.800 94.400 L 213.200 94.400 213.200 99.924 M237.489 130.686 C 237.828 130.927,238.012 132.870,238.089 137.017 L 238.200 143.000 243.800 143.000 L 249.400 143.000 249.511 137.227 C 249.578 133.804,249.801 131.240,250.060 130.927 C 250.392 130.528,250.341 130.400,249.849 130.400 C 249.278 130.400,249.200 131.148,249.200 136.600 L 249.200 142.800 243.810 142.800 L 238.421 142.800 238.310 136.733 C 238.220 131.744,238.093 130.637,237.600 130.502 C 237.167 130.385,237.136 130.436,237.489 130.686 M268.640 130.775 C 272.893 130.934,274.875 131.162,275.340 131.549 C 276.094 132.176,276.247 131.607,275.520 130.880 C 275.181 130.541,273.214 130.422,268.820 130.475 L 262.600 130.551 268.640 130.775 M175.688 137.506 L 175.600 143.212 187.500 143.106 L 199.400 143.000 199.419 137.600 L 199.438 132.200 199.307 137.500 L 199.177 142.800 187.600 142.800 L 176.023 142.800 175.899 137.300 L 175.775 131.800 175.688 137.506 M337.321 156.100 C 337.922 156.546,338.006 157.888,338.097 168.600 L 338.200 180.600 344.000 180.707 C 348.877 180.796,349.880 180.920,350.300 181.483 C 350.575 181.852,350.800 181.975,350.800 181.756 C 350.800 180.624,349.695 180.400,344.120 180.400 L 338.400 180.400 338.400 168.480 C 338.400 156.625,338.292 155.600,337.044 155.600 C 336.825 155.600,336.950 155.825,337.321 156.100 M206.399 157.093 L 211.600 157.223 211.600 162.600 L 211.600 167.977 206.300 168.107 L 201.000 168.238 206.400 168.219 L 211.800 168.200 211.800 162.600 L 211.800 157.000 206.499 156.982 L 201.199 156.964 206.399 157.093 M311.696 175.249 L 311.600 193.499 299.900 193.794 C 291.887 193.996,288.107 194.233,287.906 194.545 C 287.744 194.795,287.609 197.349,287.606 200.220 C 287.598 206.754,287.956 206.400,281.369 206.400 C 277.202 206.400,275.995 206.524,275.606 206.992 C 275.235 207.440,275.061 213.506,274.897 231.792 L 274.679 256.000 269.139 256.000 L 263.600 256.000 263.506 243.900 L 263.413 231.800 263.294 243.400 C 263.141 258.389,262.437 256.754,269.105 256.889 L 274.600 257.000 274.909 287.400 C 275.079 304.120,275.298 318.025,275.396 318.300 C 275.527 318.666,277.003 318.800,280.907 318.800 C 284.522 318.800,286.395 318.955,286.720 319.280 C 287.079 319.639,287.200 324.320,287.200 337.880 L 287.200 356.000 293.700 355.916 L 300.200 355.832 294.000 355.616 L 287.800 355.400 287.537 331.400 C 287.316 311.196,287.363 307.216,287.837 306.239 C 288.238 305.412,288.400 303.482,288.400 299.539 L 288.400 294.000 282.280 294.000 C 278.053 294.000,276.012 293.852,275.680 293.520 C 275.321 293.161,275.200 288.482,275.200 274.928 L 275.200 256.815 276.100 256.605 C 276.595 256.490,279.340 256.351,282.200 256.298 L 287.400 256.200 287.511 250.540 C 287.590 246.467,287.769 244.758,288.147 244.444 C 288.505 244.147,294.462 243.975,306.836 243.904 L 325.000 243.800 325.200 237.800 L 325.400 231.800 330.600 231.702 C 338.361 231.557,337.615 232.248,337.517 225.292 L 337.435 219.400 337.217 225.000 L 337.000 230.600 331.105 230.711 C 324.158 230.841,324.843 230.083,324.698 237.800 L 324.600 243.000 306.400 243.200 C 296.390 243.310,287.975 243.546,287.700 243.724 C 287.340 243.957,287.200 245.592,287.200 249.575 C 287.200 256.434,287.572 256.057,280.944 255.912 L 275.800 255.800 275.800 237.400 L 275.800 219.000 281.174 218.888 C 287.975 218.746,287.600 219.111,287.600 212.631 C 287.600 206.038,287.238 206.400,293.831 206.400 C 300.311 206.400,299.946 206.775,300.088 199.974 L 300.200 194.600 305.895 194.489 C 312.848 194.354,312.050 196.965,311.907 174.800 L 311.791 157.000 311.696 175.249 M213.382 175.099 L 213.400 180.600 225.000 180.610 L 236.600 180.619 225.111 180.503 L 213.622 180.388 213.494 174.993 L 213.365 169.599 213.382 175.099 M162.667 182.267 C 162.303 182.631,162.339 192.884,162.706 193.463 C 162.868 193.717,163.000 191.242,163.000 187.963 C 163.000 184.684,162.985 182.001,162.967 182.000 C 162.948 182.000,162.813 182.120,162.667 182.267 M262.936 193.906 C 262.681 194.068,264.481 194.151,266.936 194.090 C 273.915 193.918,274.710 193.740,268.800 193.673 C 265.830 193.640,263.191 193.744,262.936 193.906 M149.360 199.800 C 149.361 203.100,149.422 204.397,149.498 202.682 C 149.573 200.967,149.572 198.267,149.497 196.682 C 149.421 195.097,149.359 196.500,149.360 199.800 M162.471 206.488 C 162.313 206.647,159.577 206.832,156.392 206.900 L 150.600 207.024 156.700 207.112 L 162.800 207.200 162.800 212.586 C 162.800 219.517,164.036 218.948,149.769 218.582 L 138.421 218.290 138.293 212.645 L 138.165 207.000 138.182 212.800 L 138.200 218.600 150.400 219.044 C 157.110 219.288,162.654 219.513,162.721 219.544 C 162.835 219.597,162.763 221.885,162.182 236.685 L 161.943 242.770 162.871 243.000 C 163.382 243.127,166.230 243.173,169.200 243.103 L 174.600 242.975 168.700 242.887 L 162.800 242.800 162.800 237.633 C 162.800 234.791,162.909 232.181,163.043 231.833 C 163.337 231.066,173.750 230.872,174.215 231.624 C 174.387 231.902,174.636 231.845,174.938 231.458 C 175.630 230.574,199.594 230.028,200.301 230.881 C 200.611 231.254,200.817 233.545,200.889 237.428 L 201.000 243.400 206.300 243.512 L 211.600 243.623 211.600 231.612 L 211.600 219.600 199.829 219.600 C 185.418 219.600,186.800 220.377,186.800 212.271 L 186.800 206.200 174.780 206.200 C 168.169 206.200,162.630 206.330,162.471 206.488 M187.120 219.280 C 187.445 219.605,187.600 221.476,187.600 225.080 L 187.600 230.400 181.200 230.400 L 174.800 230.400 174.800 225.080 C 174.800 218.417,174.410 218.800,181.200 218.800 C 184.898 218.800,186.794 218.954,187.120 219.280 M136.888 224.921 L 136.800 230.842 131.199 230.721 C 128.119 230.654,125.599 230.735,125.599 230.900 C 125.601 231.468,136.805 231.253,137.024 230.681 C 137.134 230.395,137.168 227.650,137.100 224.581 L 136.975 219.000 136.888 224.921 M250.158 225.000 C 250.158 228.080,250.221 229.287,250.297 227.682 C 250.373 226.078,250.373 223.558,250.296 222.082 C 250.219 220.607,250.157 221.920,250.158 225.000 M49.362 237.000 C 49.362 240.520,49.424 241.906,49.498 240.081 C 49.572 238.256,49.572 235.376,49.497 233.681 C 49.422 231.986,49.361 233.480,49.362 237.000 M124.749 249.536 C 124.903 264.872,124.844 267.727,124.366 268.030 C 123.899 268.325,123.916 268.389,124.457 268.394 C 124.819 268.397,125.201 268.625,125.306 268.900 C 125.546 269.527,149.200 269.417,149.200 268.788 C 149.200 268.546,144.773 268.400,137.426 268.400 L 125.651 268.400 125.426 255.900 C 125.302 249.025,125.057 240.700,124.883 237.400 C 124.684 233.621,124.634 238.114,124.749 249.536 M149.287 274.890 L 149.200 280.379 143.100 280.501 L 137.000 280.622 143.113 280.711 C 150.311 280.816,149.666 281.435,149.499 274.579 L 149.374 269.400 149.287 274.890 M176.000 275.184 C 176.000 279.136,175.854 280.905,175.500 281.235 C 175.151 281.561,175.034 282.860,175.112 285.550 C 175.174 287.668,175.084 293.180,174.912 297.800 L 174.600 306.200 168.800 306.262 C 165.610 306.297,162.730 306.432,162.400 306.563 C 162.070 306.694,150.820 306.847,137.400 306.904 L 113.000 307.006 137.900 307.103 L 162.800 307.200 162.748 317.300 C 162.720 322.855,162.585 333.835,162.448 341.701 C 162.284 351.166,162.335 355.956,162.600 355.867 C 162.849 355.784,163.075 351.142,163.200 343.567 L 163.400 331.400 168.774 331.288 C 171.729 331.226,174.355 331.003,174.608 330.793 C 174.937 330.520,175.143 325.297,175.326 312.662 C 175.466 302.901,175.695 294.618,175.833 294.257 C 176.050 293.694,176.837 293.600,181.363 293.600 C 184.934 293.600,186.795 293.445,187.120 293.120 C 187.722 292.518,187.795 282.568,187.200 282.200 C 186.961 282.052,186.800 279.463,186.800 275.776 L 186.800 269.600 181.400 269.600 L 176.000 269.600 176.000 275.184 M225.110 280.900 C 225.061 280.955,224.926 289.370,224.810 299.600 L 224.600 318.200 218.808 318.312 C 211.766 318.447,212.243 317.970,212.000 325.118 L 211.800 331.000 206.426 331.112 C 199.335 331.260,200.000 329.946,200.000 343.806 C 200.000 354.114,199.924 355.543,199.367 355.757 C 199.019 355.891,196.139 356.000,192.967 356.000 C 189.630 356.000,187.200 356.159,187.200 356.376 C 187.200 356.955,187.914 357.263,188.196 356.807 C 188.576 356.192,198.881 356.276,199.717 356.900 C 200.277 357.319,200.404 358.312,200.493 363.000 L 200.600 368.600 205.600 368.716 C 208.350 368.779,211.005 368.731,211.500 368.608 L 212.400 368.385 212.449 350.892 C 212.476 341.272,212.611 330.250,212.749 326.400 L 213.000 319.400 218.200 319.302 C 221.060 319.249,223.803 319.111,224.296 318.996 L 225.192 318.787 225.296 300.293 L 225.400 281.800 243.800 281.800 L 262.200 281.800 262.312 287.145 C 262.458 294.118,263.702 293.442,250.094 293.788 C 243.324 293.961,238.395 294.249,238.100 294.490 C 237.396 295.065,237.377 317.617,238.080 318.320 C 238.405 318.645,240.265 318.800,243.831 318.800 C 247.947 318.800,249.208 318.927,249.583 319.380 C 249.940 319.809,250.134 326.258,250.332 344.280 L 250.600 368.600 256.184 368.712 C 259.255 368.773,261.866 368.983,261.986 369.177 C 262.106 369.371,262.138 366.837,262.058 363.545 C 261.932 358.375,262.003 357.460,262.582 356.820 C 263.022 356.333,263.106 355.989,262.826 355.816 C 262.540 355.640,262.400 351.699,262.400 343.856 C 262.400 329.911,263.039 331.200,256.128 331.200 C 249.632 331.200,250.395 333.707,250.287 312.000 L 250.200 294.600 255.981 294.489 C 263.564 294.342,263.200 294.684,263.200 287.712 C 263.200 279.935,265.631 280.800,243.786 280.800 C 233.564 280.800,225.160 280.845,225.110 280.900 " stroke="none" fill="#2c0c3c" fill-rule="evenodd"></path></g></svg>