<?xml version="1.0" encoding="UTF-8"?>
<svg xmlns="http://www.w3.org/2000/svg" xmlns:xlink="http://www.w3.org/1999/xlink" width="20pt" height="20pt" viewBox="0 0 20 20" version="1.1">
<g id="surface1">
<path style=" stroke:none;fill-rule:nonzero;fill:rgb(80%,80%,80%);fill-opacity:1;" d="M 19.667969 10 C 19.667969 15.332031 15.332031 19.667969 10 19.667969 C 4.667969 19.667969 0.332031 15.332031 0.332031 10 C 0.332031 4.667969 4.667969 0.332031 10 0.332031 C 15.332031 0.332031 19.667969 4.667969 19.667969 10 "/>
<path style=" stroke:none;fill-rule:nonzero;fill:rgb(88.627451%,89.019608%,89.803922%);fill-opacity:1;" d="M 18.667969 10 C 18.667969 15.332031 14.566406 19.667969 9.5 19.667969 C 4.433594 19.667969 0.332031 15.332031 0.332031 10 C 0.332031 4.667969 4.433594 0.332031 9.5 0.332031 C 14.566406 0.332031 18.667969 4.667969 18.667969 10 "/>
<path style=" stroke:none;fill-rule:nonzero;fill:rgb(100%,100%,100%);fill-opacity:1;" d="M 10 19.667969 C 10.101562 19.667969 10.167969 19.667969 10.265625 19.667969 C 5.300781 19.535156 1.332031 15.265625 1.332031 10 C 1.332031 4.734375 5.300781 0.464844 10.265625 0.332031 C 10.167969 0.332031 10.101562 0.332031 10 0.332031 C 4.667969 0.332031 0.332031 4.667969 0.332031 10 C 0.332031 15.332031 4.667969 19.667969 10 19.667969 "/>
<path style=" stroke:none;fill-rule:nonzero;fill:rgb(87.843137%,87.843137%,87.843137%);fill-opacity:1;" d="M 14.964844 1.832031 C 15 1.832031 15.035156 1.800781 15.066406 1.765625 C 13.601562 0.867188 11.867188 0.332031 10 0.332031 C 7.964844 0.332031 6.066406 0.964844 4.5 2.066406 C 4.5 2.101562 4.535156 2.132812 4.535156 2.167969 C 5.199219 3.601562 6.035156 6 7.5 6.566406 C 8.199219 6.832031 8.867188 6.734375 9.535156 7.066406 C 9.601562 7.101562 9.699219 7.167969 9.765625 7.234375 C 10.101562 7.734375 9.898438 8.464844 10.234375 8.632812 C 10.5 8.765625 10.667969 9.066406 10.535156 9.332031 C 10.066406 10.464844 10.464844 11.765625 11.566406 12.667969 C 12.332031 13.300781 11.699219 14.765625 11.066406 15.898438 C 10.832031 16.300781 11.234375 16.765625 11.699219 16.632812 C 12.398438 16.398438 12.964844 16.035156 13.632812 15.433594 C 14.601562 14.601562 14.800781 13.699219 15.765625 12.964844 L 15.800781 12.933594 C 16.035156 12.199219 16.800781 10.632812 16.035156 10.234375 C 15.300781 9.867188 15.035156 8.765625 14.332031 8.035156 C 14.265625 7.933594 14.132812 7.898438 14.035156 7.898438 C 13.167969 7.800781 12.800781 7.132812 12.199219 7.566406 C 11.765625 7.898438 11.265625 7.699219 11.132812 7.167969 C 11.101562 7 11 6.832031 10.699219 6.734375 C 10.464844 6.667969 10.332031 6.398438 10.433594 6.167969 C 10.535156 5.867188 9.898438 5.898438 9.566406 5.964844 C 9.464844 5.964844 9.800781 5.601562 9.699219 5.667969 C 9.300781 5.898438 8.800781 5.5 8.832031 5.035156 C 8.867188 4.566406 8.933594 4.566406 9.765625 4.5 C 10.632812 4.101562 11.066406 4.398438 11.03125 5.398438 C 11.566406 5.464844 11.765625 5.234375 11.601562 4.699219 C 11.566406 4.535156 11.601562 4.367188 11.699219 4.234375 C 12.601562 2.898438 13.433594 2.367188 14.964844 1.832031 "/>
<path style=" stroke:none;fill-rule:nonzero;fill:rgb(94.117647%,94.117647%,94.117647%);fill-opacity:1;" d="M 15 10.265625 C 14.265625 9.898438 14 8.800781 13.300781 8.066406 C 13.234375 7.964844 13.101562 7.933594 13 7.933594 C 12.132812 7.832031 11.765625 7.167969 11.167969 7.601562 C 10.734375 7.933594 10.234375 7.734375 10.101562 7.199219 C 10.066406 7.035156 9.964844 6.867188 9.667969 6.765625 C 9.433594 6.699219 9.300781 6.433594 9.398438 6.199219 C 9.5 5.898438 9.332031 5.601562 9.035156 5.667969 C 8.933594 5.667969 8.765625 5.632812 8.667969 5.699219 C 8.265625 5.933594 7.765625 5.535156 7.800781 5.066406 C 7.832031 4.601562 7.898438 4.601562 8.734375 4.535156 C 9.101562 4.367188 9.398438 4.332031 9.601562 4.398438 C 9.632812 4.367188 9.699219 4.332031 9.765625 4.332031 L 10.367188 4.332031 C 10.464844 4.332031 10.535156 4.367188 10.566406 4.398438 C 10.601562 4.332031 10.601562 4.265625 10.667969 4.199219 C 11.667969 2.898438 12.101562 2.332031 13.601562 1.832031 C 13.632812 1.832031 13.667969 1.800781 13.699219 1.765625 C 12.367188 0.933594 11.199219 0.433594 9.535156 0.332031 C 9.464844 0.433594 9.398438 0.464844 9.265625 0.464844 C 8.066406 0.464844 6.964844 0.566406 6.101562 1.433594 C 5.632812 1.867188 5.132812 2.101562 4.535156 2.234375 C 4.535156 2.433594 4.535156 2.667969 4.566406 2.898438 C 5.035156 3.566406 5.5 4.265625 5.832031 5.035156 C 5.867188 5.101562 5.867188 5.132812 5.867188 5.199219 C 6.035156 5.398438 6.167969 5.566406 6.300781 5.699219 C 7.101562 6.5 7.964844 6.535156 8.898438 6.964844 C 9.699219 7.332031 10.035156 7.898438 10.066406 8.566406 C 10.199219 8.566406 10.332031 8.632812 10.367188 8.832031 C 10.367188 8.898438 10.332031 9.433594 10.234375 9.867188 C 10.265625 9.898438 10.265625 9.964844 10.265625 10 C 10.265625 10.464844 10.300781 10.933594 10.332031 11.398438 C 10.464844 11.367188 10.566406 11.433594 10.667969 11.566406 C 11 12.199219 13.132812 13.800781 11.566406 14.535156 C 11.535156 14.535156 11.535156 14.535156 11.535156 14.566406 C 11.566406 14.632812 11.566406 14.699219 11.535156 14.765625 C 11.464844 15 11.367188 15.234375 11.265625 15.464844 C 11.132812 15.867188 11 16.300781 11.035156 16.300781 C 11.101562 16.332031 11.167969 16.367188 11.199219 16.398438 C 11.699219 16.167969 12.132812 15.867188 12.632812 15.433594 C 13.601562 14.601562 13.800781 13.699219 14.765625 12.964844 L 14.800781 12.933594 C 15 12.234375 15.765625 10.667969 15 10.265625 "/>
<path style=" stroke:none;fill-rule:nonzero;fill:rgb(71.372549%,71.372549%,71.372549%);fill-opacity:1;" d="M 10 20 C 4.5 20 0 15.5 0 10 C 0 4.5 4.5 0 10 0 C 15.5 0 20 4.5 20 10 C 20 15.5 15.5 20 10 20 Z M 10 0.667969 C 4.867188 0.667969 0.667969 4.867188 0.667969 10 C 0.667969 15.132812 4.867188 19.332031 10 19.332031 C 15.132812 19.332031 19.332031 15.132812 19.332031 10 C 19.332031 4.867188 15.132812 0.667969 10 0.667969 Z M 10 0.667969 "/>
<path style=" stroke:none;fill-rule:nonzero;fill:rgb(71.372549%,71.372549%,71.372549%);fill-opacity:1;" d="M 11.464844 17 C 11.234375 17 11 16.898438 10.832031 16.699219 C 10.601562 16.433594 10.566406 16.066406 10.734375 15.765625 C 11.765625 13.898438 11.632812 13.199219 11.332031 12.964844 C 10.132812 11.964844 9.699219 10.535156 10.234375 9.234375 C 10.265625 9.101562 10.199219 9 10.066406 8.933594 C 9.734375 8.765625 9.699219 8.398438 9.632812 8.066406 C 9.601562 7.832031 9.566406 7.601562 9.464844 7.433594 C 9.464844 7.398438 9.398438 7.367188 9.367188 7.367188 C 9.066406 7.199219 8.734375 7.167969 8.398438 7.101562 C 8.066406 7.066406 7.734375 7 7.367188 6.867188 C 6 6.332031 5.199219 4.464844 4.535156 3 C 4.433594 2.765625 4.332031 2.535156 4.234375 2.332031 C 4.199219 2.265625 4.199219 2.234375 4.167969 2.167969 C 4.132812 2.035156 4.199219 1.898438 4.300781 1.832031 C 6 0.601562 7.964844 0 10 0 C 11.867188 0 13.667969 0.5 15.234375 1.5 C 15.332031 1.535156 15.398438 1.667969 15.398438 1.765625 C 15.398438 1.867188 15.332031 2 15.234375 2.035156 C 15.199219 2.066406 15.132812 2.101562 15.066406 2.132812 C 13.566406 2.632812 12.800781 3.199219 11.867188 4.398438 C 11.832031 4.464844 11.800781 4.535156 11.832031 4.566406 C 11.964844 4.964844 11.933594 5.265625 11.734375 5.5 C 11.566406 5.699219 11.265625 5.765625 10.898438 5.734375 C 10.734375 5.699219 10.601562 5.566406 10.601562 5.398438 C 10.601562 4.867188 10.464844 4.734375 10.433594 4.699219 C 10.332031 4.632812 10.101562 4.667969 9.800781 4.800781 C 9.765625 4.800781 9.734375 4.832031 9.699219 4.832031 L 9.566406 4.867188 C 9.367188 4.898438 9.167969 4.898438 9.101562 4.933594 C 9.101562 4.964844 9.101562 5 9.101562 5.066406 C 9.101562 5.199219 9.167969 5.332031 9.265625 5.398438 C 9.332031 5.433594 9.398438 5.433594 9.464844 5.398438 C 9.601562 5.332031 9.800781 5.332031 9.898438 5.464844 C 9.933594 5.535156 9.964844 5.566406 10 5.632812 C 10.300781 5.632812 10.5 5.699219 10.632812 5.867188 C 10.734375 6 10.765625 6.167969 10.699219 6.332031 C 10.699219 6.367188 10.699219 6.398438 10.699219 6.433594 C 10.699219 6.464844 10.734375 6.464844 10.734375 6.464844 C 11.199219 6.601562 11.332031 6.898438 11.398438 7.101562 C 11.433594 7.265625 11.535156 7.367188 11.632812 7.398438 C 11.765625 7.433594 11.867188 7.367188 11.933594 7.332031 C 12.433594 6.933594 12.898438 7.167969 13.265625 7.332031 C 13.5 7.433594 13.734375 7.566406 14 7.601562 C 14.199219 7.632812 14.398438 7.699219 14.5 7.832031 C 14.832031 8.167969 15.066406 8.566406 15.265625 8.933594 C 15.535156 9.398438 15.765625 9.800781 16.101562 9.964844 C 17.035156 10.433594 16.5 11.800781 16.167969 12.699219 C 16.101562 12.832031 16.066406 12.964844 16.035156 13.066406 C 16 13.132812 15.964844 13.199219 15.898438 13.265625 C 15.433594 13.601562 15.167969 14 14.867188 14.433594 C 14.566406 14.867188 14.265625 15.300781 13.765625 15.699219 C 13.035156 16.332031 12.433594 16.699219 11.699219 16.933594 C 11.667969 17 11.566406 17 11.464844 17 Z M 4.898438 2.167969 C 4.964844 2.332031 5.066406 2.5 5.132812 2.699219 C 5.699219 4 6.5 5.800781 7.601562 6.234375 C 7.898438 6.332031 8.167969 6.398438 8.464844 6.433594 C 8.832031 6.5 9.234375 6.535156 9.632812 6.734375 C 9.734375 6.800781 9.898438 6.898438 9.964844 7.035156 C 10.167969 7.332031 10.234375 7.699219 10.265625 7.964844 C 10.300781 8.101562 10.300781 8.300781 10.332031 8.332031 C 10.765625 8.566406 10.964844 9.035156 10.765625 9.464844 C 10.367188 10.464844 10.734375 11.632812 11.699219 12.433594 C 12.699219 13.234375 11.933594 14.898438 11.265625 16.101562 C 11.199219 16.199219 11.265625 16.265625 11.300781 16.300781 C 11.332031 16.332031 11.398438 16.398438 11.5 16.367188 C 12.132812 16.132812 12.699219 15.800781 13.332031 15.234375 C 13.765625 14.867188 14.035156 14.464844 14.300781 14.066406 C 14.601562 13.632812 14.898438 13.199219 15.433594 12.800781 C 15.464844 12.699219 15.5 12.601562 15.535156 12.5 C 15.734375 11.933594 16.167969 10.800781 15.800781 10.601562 C 15.300781 10.332031 15 9.832031 14.699219 9.332031 C 14.5 9 14.300781 8.632812 14.035156 8.367188 C 14.035156 8.367188 13.964844 8.332031 13.933594 8.332031 C 13.535156 8.265625 13.234375 8.132812 13 8.035156 C 12.632812 7.867188 12.535156 7.832031 12.367188 7.964844 C 12.066406 8.167969 11.734375 8.234375 11.433594 8.132812 C 11.101562 8.035156 10.867188 7.765625 10.765625 7.398438 C 10.734375 7.332031 10.734375 7.265625 10.535156 7.199219 C 10.332031 7.132812 10.167969 7 10.101562 6.800781 C 10.035156 6.667969 10 6.5 10.035156 6.367188 C 9.933594 6.367188 9.765625 6.367188 9.601562 6.398438 C 9.464844 6.433594 9.332031 6.367188 9.265625 6.265625 C 9.234375 6.234375 9.234375 6.199219 9.234375 6.167969 C 9.132812 6.132812 9.066406 6.101562 8.964844 6.066406 C 8.632812 5.867188 8.433594 5.5 8.464844 5.132812 C 8.5 4.398438 8.867188 4.367188 9.535156 4.300781 L 9.632812 4.300781 C 10.167969 4.066406 10.566406 4.066406 10.867188 4.265625 C 11 4.367188 11.132812 4.5 11.199219 4.699219 C 11.199219 4.5 11.265625 4.300781 11.398438 4.132812 C 12.300781 2.964844 13.066406 2.367188 14.367188 1.832031 C 12.964844 1.035156 11.5 0.667969 10 0.667969 C 8.167969 0.667969 6.433594 1.199219 4.898438 2.167969 Z M 15.433594 12.867188 Z M 15.535156 12.734375 Z M 15.535156 12.734375 "/>
</g>
</svg>
