<?xml version="1.0" encoding="UTF-8"?>
<svg xmlns="http://www.w3.org/2000/svg" xmlns:xlink="http://www.w3.org/1999/xlink" width="20pt" height="20pt" viewBox="0 0 20 20" version="1.1">
<g id="surface1">
<path style=" stroke:none;fill-rule:nonzero;fill:rgb(17.647059%,32.156863%,48.627451%);fill-opacity:1;" d="M 19.882812 8.464844 C 19.460938 5.746094 17.929688 3.292969 15.609375 1.71875 C 13.949219 0.59375 12.011719 0 10 0 C 8.554688 0 7.160156 0.300781 5.855469 0.894531 C 5.546875 1.039062 5.410156 1.402344 5.550781 1.710938 C 5.691406 2.019531 6.058594 2.15625 6.367188 2.015625 C 7.511719 1.496094 8.734375 1.230469 10 1.230469 C 11.261719 1.230469 12.488281 1.5 13.617188 2.011719 C 13.222656 2.191406 12.871094 2.464844 12.710938 2.851562 C 12.691406 2.894531 12.628906 3.019531 12.574219 3.125 C 12.164062 3.902344 11.40625 5.351562 11.894531 6.402344 C 12.527344 7.769531 13.78125 8.441406 15.242188 8.199219 C 15.363281 8.179688 15.464844 8.164062 15.546875 8.15625 C 15.351562 8.546875 15.195312 9.136719 15.703125 9.804688 C 15.910156 10.074219 16.296875 10.125 16.566406 9.921875 C 16.835938 9.714844 16.890625 9.328125 16.683594 9.058594 C 16.570312 8.90625 16.542969 8.871094 16.757812 8.515625 C 17.039062 8.058594 17.066406 7.664062 16.847656 7.339844 C 16.5 6.820312 15.738281 6.867188 15.042969 6.984375 C 13.875 7.179688 13.292969 6.492188 13.011719 5.886719 C 12.78125 5.386719 13.445312 4.113281 13.664062 3.695312 C 13.75 3.535156 13.808594 3.417969 13.847656 3.324219 C 13.894531 3.238281 14.210938 3.042969 14.625 2.988281 C 14.832031 2.960938 15.003906 2.929688 15.144531 2.898438 C 15.214844 2.949219 15.285156 3.003906 15.355469 3.054688 C 15.375 3.070312 15.394531 3.089844 15.414062 3.105469 C 15.464844 3.144531 15.515625 3.183594 15.5625 3.222656 C 15.589844 3.246094 15.617188 3.269531 15.644531 3.289062 C 15.6875 3.324219 15.726562 3.359375 15.765625 3.394531 C 15.796875 3.417969 15.824219 3.445312 15.851562 3.472656 C 15.890625 3.503906 15.925781 3.539062 15.964844 3.570312 C 15.992188 3.597656 16.019531 3.625 16.050781 3.652344 C 16.085938 3.6875 16.121094 3.71875 16.152344 3.753906 C 16.183594 3.78125 16.210938 3.8125 16.242188 3.839844 C 16.273438 3.875 16.304688 3.90625 16.339844 3.941406 C 16.367188 3.972656 16.394531 4.003906 16.425781 4.03125 C 16.457031 4.066406 16.488281 4.097656 16.515625 4.132812 C 16.546875 4.164062 16.574219 4.195312 16.601562 4.230469 C 16.628906 4.261719 16.660156 4.296875 16.691406 4.332031 C 16.71875 4.363281 16.746094 4.398438 16.769531 4.429688 C 16.800781 4.464844 16.828125 4.5 16.855469 4.535156 C 16.882812 4.566406 16.910156 4.601562 16.933594 4.632812 C 16.960938 4.667969 16.988281 4.703125 17.015625 4.742188 C 17.042969 4.773438 17.066406 4.808594 17.09375 4.84375 C 17.117188 4.878906 17.144531 4.914062 17.167969 4.953125 C 17.195312 4.988281 17.21875 5.023438 17.242188 5.058594 C 17.265625 5.09375 17.292969 5.128906 17.316406 5.167969 C 17.339844 5.203125 17.363281 5.238281 17.386719 5.277344 C 17.410156 5.3125 17.433594 5.347656 17.457031 5.386719 C 17.480469 5.421875 17.5 5.460938 17.523438 5.496094 C 17.546875 5.535156 17.570312 5.574219 17.589844 5.609375 C 17.613281 5.648438 17.632812 5.683594 17.65625 5.722656 C 17.675781 5.761719 17.695312 5.800781 17.71875 5.835938 C 17.738281 5.875 17.757812 5.914062 17.777344 5.953125 C 17.796875 5.992188 17.816406 6.03125 17.835938 6.070312 C 17.855469 6.109375 17.875 6.144531 17.894531 6.183594 C 17.914062 6.222656 17.933594 6.265625 17.949219 6.304688 C 17.96875 6.34375 17.988281 6.382812 18.003906 6.421875 C 18.023438 6.460938 18.039062 6.5 18.058594 6.542969 C 18.074219 6.582031 18.089844 6.621094 18.109375 6.660156 C 18.125 6.703125 18.140625 6.742188 18.15625 6.785156 C 18.171875 6.824219 18.1875 6.863281 18.203125 6.902344 C 18.21875 6.945312 18.234375 6.984375 18.25 7.027344 C 18.261719 7.066406 18.277344 7.109375 18.292969 7.148438 C 18.304688 7.191406 18.320312 7.234375 18.335938 7.273438 C 18.347656 7.316406 18.359375 7.355469 18.375 7.398438 C 18.386719 7.441406 18.398438 7.484375 18.410156 7.527344 C 18.421875 7.566406 18.4375 7.605469 18.445312 7.648438 C 18.460938 7.691406 18.46875 7.734375 18.480469 7.777344 C 18.492188 7.820312 18.503906 7.859375 18.515625 7.902344 C 18.523438 7.945312 18.535156 7.992188 18.546875 8.035156 C 18.554688 8.074219 18.5625 8.117188 18.574219 8.15625 C 18.582031 8.203125 18.589844 8.246094 18.601562 8.292969 C 18.609375 8.335938 18.617188 8.375 18.625 8.414062 C 18.632812 8.460938 18.640625 8.507812 18.648438 8.554688 C 18.65625 8.59375 18.660156 8.636719 18.667969 8.675781 C 18.675781 8.722656 18.679688 8.769531 18.6875 8.820312 C 18.691406 8.859375 18.699219 8.898438 18.703125 8.9375 C 18.710938 8.988281 18.714844 9.035156 18.71875 9.085938 C 18.722656 9.125 18.726562 9.164062 18.730469 9.199219 C 18.738281 9.253906 18.742188 9.304688 18.746094 9.359375 C 18.746094 9.394531 18.75 9.429688 18.753906 9.464844 C 18.753906 9.523438 18.757812 9.585938 18.761719 9.644531 C 18.761719 9.675781 18.761719 9.703125 18.765625 9.734375 C 18.765625 9.820312 18.769531 9.910156 18.769531 10 C 18.769531 10.078125 18.765625 10.15625 18.765625 10.230469 C 18.765625 10.257812 18.761719 10.285156 18.761719 10.3125 C 18.761719 10.359375 18.757812 10.410156 18.757812 10.460938 C 18.753906 10.492188 18.753906 10.523438 18.75 10.554688 C 18.75 10.601562 18.746094 10.644531 18.742188 10.691406 C 18.738281 10.722656 18.734375 10.757812 18.734375 10.789062 C 18.730469 10.832031 18.726562 10.875 18.722656 10.917969 C 18.71875 10.953125 18.714844 10.988281 18.710938 11.023438 C 18.703125 11.0625 18.699219 11.105469 18.695312 11.144531 C 18.691406 11.179688 18.683594 11.214844 18.679688 11.25 C 18.675781 11.292969 18.667969 11.332031 18.664062 11.371094 C 18.65625 11.40625 18.652344 11.441406 18.644531 11.476562 C 18.636719 11.515625 18.632812 11.558594 18.625 11.597656 C 18.617188 11.632812 18.609375 11.667969 18.605469 11.703125 C 18.597656 11.742188 18.589844 11.78125 18.582031 11.820312 C 18.574219 11.855469 18.566406 11.890625 18.558594 11.925781 C 18.546875 11.964844 18.539062 12.003906 18.53125 12.039062 C 18.523438 12.078125 18.511719 12.113281 18.503906 12.148438 C 18.496094 12.183594 18.484375 12.222656 18.476562 12.261719 C 18.464844 12.296875 18.457031 12.332031 18.445312 12.367188 C 18.433594 12.40625 18.425781 12.441406 18.414062 12.480469 C 18.402344 12.515625 18.390625 12.550781 18.382812 12.585938 C 18.371094 12.625 18.359375 12.660156 18.347656 12.699219 C 18.335938 12.734375 18.324219 12.769531 18.3125 12.800781 C 18.300781 12.839844 18.285156 12.875 18.273438 12.914062 C 18.261719 12.949219 18.25 12.984375 18.234375 13.015625 C 18.222656 13.054688 18.207031 13.089844 18.195312 13.128906 C 18.179688 13.164062 18.167969 13.195312 18.152344 13.230469 C 18.140625 13.269531 18.125 13.304688 18.109375 13.339844 C 18.09375 13.375 18.082031 13.410156 18.066406 13.441406 C 18.058594 13.457031 18.054688 13.472656 18.046875 13.488281 C 17.960938 13.5625 17.878906 13.628906 17.800781 13.695312 C 17.691406 13.789062 17.609375 13.847656 17.550781 13.882812 C 17.5 13.742188 17.4375 13.453125 17.386719 12.871094 C 17.359375 12.53125 17.058594 12.28125 16.722656 12.3125 C 16.382812 12.339844 16.132812 12.640625 16.160156 12.976562 C 16.242188 13.890625 16.375 14.808594 17.066406 15.089844 C 17.085938 15.097656 17.105469 15.105469 17.125 15.113281 C 15.496094 17.375 12.851562 18.769531 10 18.769531 C 5.164062 18.769531 1.230469 14.835938 1.230469 10 C 1.230469 9.136719 1.355469 8.292969 1.601562 7.476562 C 1.945312 7.554688 2.367188 7.625 2.773438 7.625 C 3.421875 7.625 4.035156 7.445312 4.242188 6.816406 C 4.40625 6.332031 4.726562 6.242188 5.378906 6.101562 C 5.59375 6.054688 5.820312 6.007812 6.039062 5.929688 C 6.257812 5.851562 6.929688 5.617188 7.105469 5.015625 C 7.210938 4.648438 7.105469 4.257812 6.789062 3.859375 C 6.578125 3.59375 6.191406 3.546875 5.925781 3.757812 C 5.65625 3.96875 5.613281 4.355469 5.824219 4.625 C 5.835938 4.640625 5.851562 4.65625 5.859375 4.671875 C 5.808594 4.699219 5.738281 4.730469 5.628906 4.769531 C 5.484375 4.820312 5.308594 4.859375 5.121094 4.898438 C 4.472656 5.035156 3.503906 5.246094 3.097656 6.363281 C 2.984375 6.398438 2.554688 6.472656 1.359375 6.148438 C 1.359375 6.148438 1.355469 6.148438 1.355469 6.144531 C 1.34375 6.144531 1.332031 6.140625 1.320312 6.136719 C 1.3125 6.136719 1.304688 6.132812 1.296875 6.132812 C 1.28125 6.132812 1.269531 6.128906 1.257812 6.128906 C 1.25 6.128906 1.242188 6.125 1.234375 6.125 C 1.222656 6.125 1.210938 6.125 1.195312 6.125 C 1.1875 6.125 1.179688 6.125 1.171875 6.125 C 1.160156 6.125 1.148438 6.128906 1.140625 6.128906 C 1.128906 6.128906 1.121094 6.128906 1.113281 6.132812 C 1.101562 6.132812 1.09375 6.136719 1.082031 6.136719 C 1.074219 6.140625 1.0625 6.140625 1.054688 6.140625 C 1.042969 6.144531 1.035156 6.148438 1.023438 6.152344 C 1.015625 6.152344 1.007812 6.15625 1 6.160156 C 0.988281 6.164062 0.976562 6.167969 0.964844 6.171875 C 0.960938 6.175781 0.949219 6.175781 0.945312 6.179688 C 0.933594 6.1875 0.921875 6.191406 0.910156 6.195312 C 0.90625 6.199219 0.898438 6.203125 0.890625 6.207031 C 0.878906 6.214844 0.871094 6.222656 0.859375 6.226562 C 0.851562 6.230469 0.847656 6.234375 0.839844 6.238281 C 0.832031 6.246094 0.820312 6.253906 0.808594 6.261719 C 0.804688 6.265625 0.800781 6.269531 0.792969 6.277344 C 0.785156 6.285156 0.777344 6.292969 0.769531 6.300781 C 0.761719 6.304688 0.757812 6.3125 0.75 6.316406 C 0.742188 6.324219 0.738281 6.332031 0.730469 6.339844 C 0.722656 6.347656 0.71875 6.355469 0.710938 6.363281 C 0.707031 6.371094 0.703125 6.378906 0.695312 6.386719 C 0.691406 6.394531 0.683594 6.402344 0.675781 6.414062 C 0.671875 6.417969 0.667969 6.425781 0.664062 6.433594 C 0.660156 6.445312 0.652344 6.457031 0.648438 6.464844 C 0.644531 6.472656 0.640625 6.480469 0.636719 6.488281 C 0.632812 6.5 0.625 6.511719 0.621094 6.523438 C 0.621094 6.523438 0.621094 6.527344 0.621094 6.527344 C 0.207031 7.636719 0 8.804688 0 10 C 0 15.515625 4.484375 20 10 20 C 13.917969 20 17.496094 17.691406 19.113281 14.121094 C 19.703125 12.824219 20 11.4375 20 10 C 20 9.480469 19.960938 8.96875 19.882812 8.464844 Z M 19.882812 8.464844 "/>
<path style=" stroke:none;fill-rule:nonzero;fill:rgb(80.392157%,90.196078%,97.254902%);fill-opacity:1;" d="M 6.1875 8.328125 C 6.1875 8.328125 6.671875 7.890625 7.242188 8.066406 C 7.816406 8.238281 9.105469 7.21875 9.867188 8.742188 C 10.148438 9.304688 10.308594 9.160156 10.761719 9.277344 C 11.214844 9.398438 11.886719 8.953125 12.066406 9.585938 C 12.246094 10.21875 12.515625 10.609375 12.222656 11.300781 C 11.929688 11.988281 11.785156 12.421875 11.898438 12.714844 C 12.433594 14.085938 11.800781 13.882812 11.359375 14.125 C 10.914062 14.367188 11.835938 15.484375 11.632812 15.789062 C 10.972656 16.777344 11.214844 18.007812 10.5 17.085938 C 9.78125 16.167969 9.449219 15.722656 9.449219 15.191406 C 9.445312 14.664062 9.859375 14.371094 9.257812 13.90625 C 8.65625 13.445312 8.757812 12.847656 8.226562 12.664062 C 7.695312 12.480469 7.285156 12.285156 7.183594 11.71875 C 7.085938 11.152344 7.027344 11.285156 6.519531 10.726562 C 6.015625 10.171875 6.1875 8.328125 6.1875 8.328125 Z M 6.1875 8.328125 "/>
<path style=" stroke:none;fill-rule:nonzero;fill:rgb(17.647059%,32.156863%,48.627451%);fill-opacity:1;" d="M 10.882812 18.027344 C 10.503906 18.027344 10.238281 17.757812 10.011719 17.464844 C 9.277344 16.523438 8.832031 15.953125 8.832031 15.195312 C 8.832031 14.945312 8.890625 14.738281 8.929688 14.589844 C 8.941406 14.550781 8.957031 14.5 8.964844 14.464844 C 8.949219 14.449219 8.921875 14.425781 8.882812 14.394531 C 8.480469 14.089844 8.308594 13.742188 8.179688 13.488281 C 8.082031 13.289062 8.058594 13.257812 8.027344 13.246094 C 7.578125 13.089844 6.75 12.804688 6.578125 11.824219 C 6.554688 11.683594 6.539062 11.632812 6.53125 11.613281 C 6.515625 11.59375 6.46875 11.550781 6.433594 11.515625 C 6.347656 11.433594 6.226562 11.320312 6.066406 11.140625 C 5.425781 10.4375 5.53125 8.769531 5.574219 8.273438 C 5.589844 8.121094 5.660156 7.976562 5.773438 7.875 C 5.828125 7.828125 6.304688 7.410156 6.96875 7.410156 C 7.117188 7.410156 7.261719 7.429688 7.402344 7.472656 C 7.480469 7.46875 7.636719 7.433594 7.773438 7.402344 C 8.019531 7.34375 8.324219 7.273438 8.648438 7.273438 C 9.425781 7.273438 10.023438 7.675781 10.417969 8.464844 C 10.453125 8.539062 10.480469 8.582031 10.496094 8.605469 C 10.519531 8.609375 10.542969 8.613281 10.566406 8.613281 C 10.652344 8.628906 10.773438 8.644531 10.917969 8.683594 C 10.917969 8.683594 10.929688 8.683594 10.949219 8.683594 C 11.015625 8.683594 11.101562 8.671875 11.195312 8.660156 C 11.316406 8.640625 11.457031 8.621094 11.597656 8.621094 C 12.128906 8.621094 12.515625 8.910156 12.660156 9.417969 C 12.691406 9.53125 12.730469 9.644531 12.765625 9.75 C 12.929688 10.230469 13.113281 10.773438 12.789062 11.539062 C 12.703125 11.738281 12.453125 12.335938 12.476562 12.5 C 12.746094 13.199219 12.789062 13.652344 12.613281 14.015625 C 12.445312 14.363281 12.144531 14.496094 11.921875 14.570312 C 11.953125 14.65625 11.996094 14.746094 12.023438 14.8125 C 12.210938 15.234375 12.421875 15.714844 12.144531 16.128906 C 11.945312 16.425781 11.839844 16.78125 11.757812 17.0625 C 11.644531 17.445312 11.476562 18.027344 10.882812 18.027344 Z M 6.78125 8.683594 C 6.75 9.410156 6.832031 10.15625 6.976562 10.316406 C 7.105469 10.457031 7.203125 10.550781 7.28125 10.625 C 7.589844 10.917969 7.699219 11.089844 7.792969 11.613281 C 7.824219 11.800781 7.890625 11.898438 8.425781 12.082031 C 8.941406 12.257812 9.136719 12.648438 9.28125 12.933594 C 9.378906 13.128906 9.457031 13.285156 9.632812 13.417969 C 10.378906 13.992188 10.207031 14.597656 10.117188 14.921875 C 10.089844 15.023438 10.0625 15.113281 10.0625 15.191406 C 10.0625 15.449219 10.242188 15.742188 10.695312 16.335938 C 10.773438 16.109375 10.875 15.855469 11.019531 15.605469 C 10.988281 15.515625 10.9375 15.398438 10.898438 15.308594 C 10.800781 15.085938 10.699219 14.855469 10.648438 14.625 C 10.507812 13.949219 10.929688 13.65625 11.0625 13.585938 C 11.207031 13.503906 11.347656 13.460938 11.460938 13.425781 C 11.464844 13.425781 11.472656 13.421875 11.476562 13.421875 C 11.457031 13.332031 11.417969 13.179688 11.324219 12.941406 C 11.117188 12.40625 11.332031 11.824219 11.65625 11.058594 C 11.796875 10.726562 11.738281 10.554688 11.597656 10.144531 C 11.570312 10.058594 11.539062 9.960938 11.507812 9.859375 C 11.464844 9.863281 11.414062 9.871094 11.367188 9.878906 C 11.242188 9.894531 11.101562 9.914062 10.949219 9.914062 C 10.824219 9.914062 10.714844 9.902344 10.605469 9.875 C 10.53125 9.851562 10.460938 9.84375 10.390625 9.832031 C 9.925781 9.765625 9.617188 9.617188 9.316406 9.015625 C 9.082031 8.546875 8.847656 8.503906 8.648438 8.503906 C 8.464844 8.503906 8.253906 8.554688 8.054688 8.601562 C 7.839844 8.652344 7.617188 8.703125 7.402344 8.703125 C 7.28125 8.703125 7.167969 8.6875 7.066406 8.65625 C 6.972656 8.625 6.867188 8.648438 6.78125 8.683594 Z M 6.78125 8.683594 "/>
</g>
</svg>
